<?xml version="1.0" standalone="no"?>
<!DOCTYPE svg PUBLIC "-//W3C//DTD SVG 1.1//EN" "http://www.w3.org/Graphics/SVG/1.1/DTD/svg11.dtd" >
<svg xmlns="http://www.w3.org/2000/svg">
<metadata>
<json>
<![CDATA[
{
	"fontFamily": "hc-iconfont",
	"majorVersion": 1,
	"minorVersion": 48,
	"designer": "Ben Regali",
	"fontURL": "http://www.holidaycheck.de",
	"copyright": "HolidayCheck AG",
	"version": "Version 1.48",
	"fontId": "hc-iconfont",
	"psName": "hc-iconfont",
	"subFamily": "Regular",
	"fullName": "hc-iconfont",
	"description": "Font generated by IcoMoon."
}
]]>
</json>
</metadata>
<defs>
<font id="hc-iconfont" horiz-adv-x="1024">
<font-face units-per-em="1024" ascent="852.48" descent="-171.52" />
<missing-glyph horiz-adv-x="1024" />
<glyph unicode="&#x20;" horiz-adv-x="921.6" d="" />
<glyph unicode="&#xe600;" glyph-name="home" data-tags="home" d="M682.667-42.667h128v298.667l-298.907 304.121-298.427-304.121v-298.667h298.427v213.316h170.907v-213.316zM538.85 714.119l345.951-345.918c14.881-14.88 14.914-38.766 0.199-53.479-14.817-14.815-38.66-14.623-53.484 0.199l-319.508 325.078-319.508-325.078c-14.881-14.88-38.77-14.912-53.484-0.199-14.817 14.815-14.625 38.656 0.199 53.479l345.951 345.918c7.474 7.473 17.22 11.201 26.934 11.197 9.584 0.002 19.304-3.752 26.749-11.197zM213.333 725.388l128-0.055v-85.333l-128-128v213.388z" />
<glyph unicode="&#xe601;" glyph-name="mail" data-tags="mail" d="M92.822 589.503c13.366 29.77 43.166 50.497 77.452 50.497h683.452c34.512 0 64.216-20.715 77.508-50.503l-419.202-327.105-419.21 327.111zM924.456 80.958c8.967 13.548 14.211 29.808 14.211 47.291v375.307l-206.903-161.44 192.692-261.158zM860.606 42.946c-2.27-0.185-4.565-0.28-6.88-0.28h-683.452c-2.333 0-4.644 0.095-6.93 0.28l187.183 253.726 161.505-126.006 161.427 125.957 187.147-253.677zM99.492 80.903c-8.946 13.555-14.159 29.831-14.159 47.347v375.326l206.9-161.423-192.741-261.25z" />
<glyph unicode="&#xe602;" glyph-name="phone" data-tags="phone" d="M379.408 404.080l-15.331 28.903c5.361 5.752 46.24 49.525 63.955 73.276 22.262 29.824-10.015 56.759-10.015 56.759s-90.821 90.833-111.519 108.851c-20.698 18.043-44.524 8.022-44.524 8.022-43.503-28.108-88.601-52.546-91.306-170.075-0.101-110.037 83.43-223.53 173.758-311.393 90.474-99.227 214.694-198.682 334.79-198.568 117.517 2.68 141.948 47.772 170.056 91.275 0 0 10.027 23.807-7.997 44.524-18.037 20.711-108.883 111.551-108.883 111.551s-26.916 32.283-56.746 10.002c-22.231-16.618-62.151-53.581-71.769-62.542 0.019-0.032-66.761 35.569-106.272 68.060-58.55 48.144-97.645 107.552-118.198 141.355z" />
<glyph unicode="&#xe603;" glyph-name="print" data-tags="print" d="M768 554.666v-42.667h-512v42.667h-130.653c-22.19 0-40.013-18.074-40.013-40.369v-303.262c0-22.363 17.915-40.369 40.013-40.369h130.653v170.667h512v-170.667h130.653c22.19 0 40.013 18.074 40.013 40.369v303.262c0 22.363-17.915 40.369-40.013 40.369h-130.653zM298.667 682.666v-128h426.667v128h-426.667zM298.667 298.666v-298.667h426.667v298.667h-426.667zM384 256h256v-42.667h-256v42.667zM384 170.666h256v-42.667h-256v42.667zM469.333 85.333h170.667v-42.667h-170.667v42.667zM725.333 469.333h42.667v-42.667h-42.667v42.667zM810.667 469.333h42.667v-42.667h-42.667v42.667z" />
<glyph unicode="&#xe604;" glyph-name="sun" data-tags="sun" d="M550.4 551.22v135.721c0 21.354-17.192 38.393-38.4 38.393-21.356 0-38.4-17.189-38.4-38.393v-135.721c12.457 2.264 25.29 3.447 38.4 3.447s25.943-1.183 38.4-3.447zM687.552 462.58l94.966 94.966c15.099 15.099 14.991 39.304-0.005 54.301-15.101 15.101-39.307 14.998-54.301 0.005l-94.966-94.966c21.209-14.676 39.63-33.097 54.306-54.306zM721.887 302.933h135.721c21.354 0 38.393 17.192 38.393 38.4 0 21.356-17.189 38.4-38.393 38.4h-135.721c2.264-12.457 3.447-25.29 3.447-38.4s-1.183-25.943-3.447-38.4zM633.247 165.781l91.766-91.766c15.099-15.099 39.304-14.991 54.301 0.005 15.101 15.101 14.998 39.307 0.005 54.301l-91.766 91.766c-14.676-21.209-33.097-39.63-54.306-54.306zM473.6 131.446v-135.721c0-21.354 17.192-38.393 38.4-38.393 21.356 0 38.4 17.189 38.4 38.393v135.721c-12.457-2.264-25.29-3.447-38.4-3.447s-25.943 1.183-38.4 3.447zM336.448 220.086l-96.033-96.033c-15.099-15.099-14.991-39.304 0.005-54.301 15.101-15.101 39.307-14.998 54.301-0.005l96.033 96.033c-21.209 14.676-39.63 33.097-54.306 54.306zM302.113 379.733h-135.721c-21.354 0-38.393-17.192-38.393-38.4 0-21.356 17.189-38.4 38.393-38.4h135.721c-2.264 12.457-3.447 25.29-3.447 38.4s1.183 25.943 3.447 38.4zM390.753 516.885l-99.233 99.233c-15.099 15.099-39.304 14.991-54.301-0.005-15.101-15.101-14.998-39.307-0.005-54.301l99.233-99.233c14.676 21.209 33.097 39.63 54.306 54.306zM512 170.666c94.257 0 170.667 76.41 170.667 170.667s-76.41 170.667-170.667 170.667c-94.257 0-170.667-76.41-170.667-170.667s76.41-170.667 170.667-170.667z" />
<glyph unicode="&#xe605;" glyph-name="star" data-tags="star" d="M285.916 5.846c-21.246-12.907-33.749-3.692-28.009 20.24l61.469 256.305-201.198 171.419c-18.907 16.108-13.959 30.784 10.699 32.75l264.076 21.057 101.739 243.291c9.561 22.862 25.122 22.717 34.622 0l101.739-243.291 264.076-21.057c24.816-1.979 29.485-16.744 10.699-32.75l-201.198-171.419 61.469-256.305c5.776-24.085-6.899-33.065-28.009-20.24l-226.086 137.348-226.086-137.348z" />
<glyph unicode="&#xe606;" glyph-name="favorites" data-tags="favorites" d="M689.23 682.666c-75.227 0-141.051-42.11-177.224-105.058-36.174 62.948-102.008 105.058-177.235 105.058-114.203 0-206.77-97.018-206.77-216.7 0-62.275 25.112-118.381 65.254-157.906l295.971-296.867c5.43-6.837 13.574-11.194 22.704-11.194 8.456 0 16.070 3.758 21.456 9.761l297.459 298.3c40.060 39.52 65.156 95.625 65.156 157.906 0 119.681-92.567 216.7-206.77 216.7z" />
<glyph unicode="&#xe607;" glyph-name="like" data-tags="like" d="M297.086 128.569v0zM742.149 122.913h0.181c33.329 0 60.435 26.946 60.435 60.185 0 16.715-6.748 31.746-17.662 42.605 24.625 7.387 42.946 30.426 42.946 57.703 0 16.689-6.664 31.698-17.445 42.553 24.714 7.322 42.729 30.173 42.729 57.421 0 33.657-26.911 60.52-60.106 60.52h-192.733c0 25.077 20.227 40.123 50.568 100.308 17.748 35.205 29.503 191.736-60.681 180.555-40.454-5.015-15.17-55.17-65.738-130.401-0.726-1.108-126.42-175.54-227.556-200.617l-126.42-25.077v-225.694l75.852-25.077 53.594-34.001c0 0 79.814-41.23 112.511-41.23 8.377 0 19.834 0 33.377 0 85.796 0 256.039 0 256.039 0 27.581 0 50.158 22.455 50.158 50.154 0 11.332-3.737 21.735-10.048 30.092z" />
<glyph unicode="&#xe608;" glyph-name="security" data-tags="security" d="M512 768c141.385 0 256-115.578 256-258.151v-168.515h-85.333v168.515c-5.020 92.253-77.549 172.818-170.667 172.818s-165.647-80.565-170.667-172.818v-168.515h-85.333v168.515c0 142.573 114.615 258.151 256 258.151zM170.667 177.166v-141c0-67.297 54.642-121.5 122.047-121.5h438.572c67.336 0 122.047 54.397 122.047 121.5v141c0 67.297-54.642 121.5-122.047 121.5h-438.572c-67.336 0-122.047-54.397-122.047-121.5zM469.333 128.044c0 23.54 18.938 42.622 42.667 42.622 23.564 0 42.667-18.887 42.667-42.622v-42.756c0-23.54-18.938-42.622-42.667-42.622-23.564 0-42.667 18.887-42.667 42.622v42.756z" />
<glyph unicode="&#xe609;" glyph-name="search" data-tags="search" d="M620.579 135.812c-49.794-31.95-109.023-50.479-172.579-50.479-176.731 0-320 143.269-320 320s143.269 320 320 320c176.731 0 320-143.269 320-320 0-66.822-20.482-128.861-55.51-180.18l166.507-166.507c16.714-16.714 16.89-43.635 0.085-60.44l-30.272-30.272c-16.666-16.666-43.495-16.86-60.44 0.085l-167.792 167.792zM446.928 190.928c117.821 0 213.333 95.513 213.333 213.333s-95.513 213.333-213.333 213.333c-117.821 0-213.333-95.513-213.333-213.333s95.513-213.333 213.333-213.333z" />
<glyph unicode="&#xe60a;" glyph-name="right-arrow-line" data-tags="right-arrow-line" d="M582.083 339.828l-239.274-239.274c-16.357-16.357-16.388-43.597 0.395-60.38l28.981-28.981c17.143-17.143 43.815-16.959 60.38-0.395l299.037 299.037c8.114 8.114 12.211 18.907 12.23 29.773 0.175 11.286-4.011 21.993-12.23 30.212l-299.037 299.037c-16.357 16.357-43.597 16.388-60.38-0.395l-28.981-28.981c-17.143-17.143-16.959-43.815-0.395-60.38l239.274-239.274z" />
<glyph unicode="&#xe60b;" glyph-name="left-arrow-line" data-tags="left-arrow-line" d="M436.394 340.711l239.274-239.274c16.357-16.357 16.388-43.597-0.395-60.38l-28.981-28.981c-17.143-17.143-43.815-16.959-60.38-0.395l-299.037 299.037c-8.114 8.114-12.211 18.907-12.23 29.773-0.175 11.286 4.011 21.993 12.23 30.212l299.037 299.037c16.357 16.357 43.597 16.388 60.38-0.395l28.981-28.981c17.143-17.143 16.959-43.815 0.395-60.38l-239.274-239.274z" />
<glyph unicode="&#xe60c;" glyph-name="right-arrow" data-tags="right-arrow" d="M754.984 366.206c17.446-13.71 17.261-36.084 0-49.648l-339.395-266.711c-17.446-13.71-31.589-7.241-31.589 14.755v553.56c0 21.859 14.328 28.32 31.589 14.755l339.395-266.711z" />
<glyph unicode="&#xe60d;" glyph-name="left-arrow" data-tags="left-arrow" d="M269.016 366.206c-17.446-13.71-17.261-36.084 0-49.648l339.395-266.711c17.446-13.71 31.589-7.241 31.589 14.755v553.56c0 21.859-14.328 28.32-31.589 14.755l-339.395-266.711z" />
<glyph unicode="&#xe60e;" glyph-name="caution" data-tags="caution" d="M512-42.667c-212.077 0-384 171.923-384 384s171.923 384 384 384c212.077 0 384-171.923 384-384s-171.923-384-384-384zM697.133 156.2c102.246 102.246 102.246 268.020 0 370.267s-268.020 102.246-370.267 0c-102.246-102.246-102.246-268.020 0-370.267s268.020-102.246 370.267 0zM676.481 226.221c54.939 78.305 47.424 187.078-22.546 257.048s-178.743 77.485-257.048 22.546l279.593-279.593zM347.519 456.445c-54.939-78.305-47.424-187.078 22.546-257.048s178.743-77.485 257.048-22.546l-279.593 279.593z" />
<glyph unicode="&#xe60f;" glyph-name="important" data-tags="important" d="M512-42.667c212.077 0 384 171.923 384 384s-171.923 384-384 384c-212.077 0-384-171.923-384-384s171.923-384 384-384zM528.756 263.137c0-3.258-1.978-5.585-5.935-6.982s-7.564-2.095-10.822-2.095c-3.724 0-7.447 0.582-11.171 1.745s-5.818 3.607-6.284 7.331l-51.26 256.931c-3.258 14.429 0.698 28.974 11.869 43.636s30.72 21.993 58.647 21.993c26.531 0 45.614-7.447 57.251-22.342s16.058-29.324 13.265-43.287l-55.562-256.931zM564.364 149.333c0-14.049-5.215-26.288-15.645-36.718s-22.67-15.645-36.718-15.645c-14.049 0-26.288 5.215-36.718 15.645s-15.645 22.67-15.645 36.718c0 14.9 5.002 27.352 15.007 37.357s22.457 15.007 37.357 15.007c14.049 0 26.288-5.215 36.718-15.645s15.645-22.67 15.645-36.718z" />
<glyph unicode="&#xe610;" glyph-name="success" data-tags="success" d="M512-42.667c-212.077 0-384 171.923-384 384s171.923 384 384 384c212.077 0 384-171.923 384-384s-171.923-384-384-384zM486.118 285.187l-107.047 89.823c-14.547 12.207-36.698 10.412-49.078-4.342l-22.486-26.798c-12.483-14.876-10.479-36.731 4.247-49.087l160.61-134.768c7.274-6.103 16.448-8.706 25.352-7.939 8.994 0.745 17.587 4.965 23.805 12.375l224.28 267.287c12.268 14.62 10.534 36.844-4.219 49.224l-26.798 22.486c-14.876 12.483-36.785 10.413-49.209-4.392l-179.458-213.869z" />
<glyph unicode="&#xe611;" glyph-name="hint" data-tags="hint" d="M512-42.667c212.077 0 384 171.923 384 384s-171.923 384-384 384c-212.077 0-384-171.923-384-384s171.923-384 384-384zM571.904 523.977c0-15.919-5.655-29.533-16.966-40.844s-24.716-16.966-40.215-16.966c-15.5 0-28.905 5.655-40.215 16.966s-16.966 24.925-16.966 40.844c0 15.5 5.655 28.905 16.966 40.215s24.716 16.966 40.215 16.966c15.5 0 28.905-5.655 40.215-16.966s16.966-24.716 16.966-40.215zM619.031 142.561c0-2.513-0.524-5.446-1.571-8.797s-2.199-5.027-3.456-5.027c-12.986 0-29.219 0.524-48.698 1.571s-36.55 1.571-51.212 1.571c-14.243 0-29.952-0.524-47.127-1.571s-32.046-1.571-44.614-1.571c-1.257 0-2.409 1.676-3.456 5.027s-1.571 6.284-1.571 8.797c0 2.095 0.524 4.817 1.571 8.169s2.199 5.236 3.456 5.655c15.5 1.676 26.496 5.865 32.989 12.567s9.74 20.108 9.74 40.215v94.255c0 16.756-3.247 27.648-9.74 32.675s-17.489 8.378-32.989 10.054c-1.257 0.419-2.409 2.199-3.456 5.341s-1.571 5.76-1.571 7.855c0 2.095 0.524 4.817 1.571 8.169s2.199 5.027 3.456 5.027c20.108 4.189 42.729 10.996 67.863 20.422s44.614 17.489 58.438 24.192c1.257 0.838 3.351 1.885 6.284 3.142s5.446 1.885 7.54 1.885c5.027 0 8.692-0.838 10.996-2.513s3.247-3.561 2.828-5.655c-0.838-14.662-1.885-32.465-3.142-53.411s-1.885-38.54-1.885-52.783v-98.653c0-19.689 3.351-33.094 10.054-40.215s17.594-11.311 32.675-12.567c1.257 0 2.409-1.78 3.456-5.341s1.571-6.388 1.571-8.483z" />
<glyph unicode="&#xe612;" glyph-name="close" data-tags="close" d="M508.784 435.059l-180.907 180.907c-25.395 25.395-65.628 25.105-90.622 0.112-25.168-25.168-24.943-65.566 0.112-90.622l180.907-180.907-180.907-180.907c-25.395-25.395-25.105-65.628-0.112-90.622 25.168-25.168 65.566-24.943 90.622 0.112l180.907 180.907 180.907-180.907c25.395-25.395 65.628-25.105 90.622-0.112 25.168 25.168 24.943 65.566-0.112 90.622l-180.907 180.907 180.907 180.907c25.395 25.395 25.105 65.628 0.112 90.622-25.168 25.168-65.566 24.943-90.622-0.112l-180.907-180.907z" />
<glyph unicode="&#xe613;" glyph-name="share" data-tags="share" d="M469.333 621.823v-451.25c0-23.357 19.103-42.573 42.667-42.573 23.728 0 42.667 19.061 42.667 42.573v451.348l98.307-98.307c16.755-16.755 43.73-16.947 60.508-0.168 16.662 16.662 16.69 43.65-0.168 60.508l-165.813 165.813c-1.413 2.018-3.020 3.94-4.822 5.742-8.483 8.483-19.573 12.628-30.63 12.488-11.057 0.14-22.147-4.005-30.63-12.488-1.802-1.802-3.409-3.725-4.822-5.742l-165.813-165.813c-16.858-16.858-16.831-43.846-0.168-60.508 16.779-16.779 43.753-16.587 60.508 0.168l98.209 98.209zM277.333 426.666c-33.115 0-64-30.885-64-64 0-16.489 0-359.333 0-384 0-33.115 30.885-64 64-64h469.333c33.115 0 64 30.885 64 64v384c0 33.115-30.885 64-64 64h-106.667v-85.333h85.333v-341.333h-426.667v341.333h85.333v85.333c-2.667 0-72.71 0-106.667 0z" />
<glyph unicode="&#xe614;" glyph-name="calendar" data-tags="calendar" d="M750.933 682.666v50.796c0 19.391-15.282 34.537-34.133 34.537-18.983 0-34.133-15.463-34.133-34.537v-50.796h-341.333v50.796c0 19.391-15.282 34.537-34.133 34.537-18.983 0-34.133-15.463-34.133-34.537v-50.796h-68.546c-18.312 0-33.854-15.227-33.854-34.011v-657.31c0-18.862 15.157-34.011 33.854-34.011h614.96c18.312 0 33.854 15.227 33.854 34.011v657.31c0 18.862-15.157 34.011-33.854 34.011h-68.546zM213.333 512h597.333v-512.711h-597.333v512.711zM277.333 469.333v-128h128v128h-128zM277.333 320v-128h128v128h-128zM277.333 170.666v-128h128v128h-128zM448 469.333v-128h128v128h-128zM448 320v-128h128v128h-128zM448 170.666v-128h128v128h-128zM618.667 469.333v-128h128v128h-128zM618.667 320v-128h128v128h-128zM273.067 682.666h68.267v-50.796c0-19.074-15.151-34.537-34.133-34.537-18.851 0-34.133 15.146-34.133 34.537v50.796zM750.933 682.666v-50.796c0-19.074-15.151-34.537-34.133-34.537-18.851 0-34.133 15.146-34.133 34.537v50.796h68.267z" />
<glyph unicode="&#xe615;" glyph-name="menu" data-tags="menu" d="M128 618.711c0 23.54 18.984 42.622 42.385 42.622h683.23c23.409 0 42.385-18.887 42.385-42.622v-42.756c0-23.54-18.984-42.622-42.385-42.622h-683.23c-23.409 0-42.385 18.887-42.385 42.622v42.756zM128 362.711c0 23.54 18.984 42.622 42.385 42.622h683.23c23.409 0 42.385-18.887 42.385-42.622v-42.756c0-23.54-18.984-42.622-42.385-42.622h-683.23c-23.409 0-42.385 18.887-42.385 42.622v42.756zM128 106.711c0 23.54 18.984 42.622 42.385 42.622h683.23c23.409 0 42.385-18.887 42.385-42.622v-42.756c0-23.54-18.984-42.622-42.385-42.622h-683.23c-23.409 0-42.385 18.887-42.385 42.622v42.756z" />
<glyph unicode="&#xe616;" glyph-name="location" data-tags="location" d="M512-85.334c0 0-277.333 325.079-277.333 568.889 0 157.094 124.166 284.444 277.333 284.444s277.333-127.35 277.333-284.444c0-243.81-277.333-568.889-277.333-568.889zM512 356.102c70.692 0 128 58.777 128 131.282s-57.308 131.282-128 131.282c-70.692 0-128-58.777-128-131.282s57.308-131.282 128-131.282z" />
<glyph unicode="&#xe617;" glyph-name="airplane" data-tags="airplane" d="M136.255 244.642c-7.878-7.878-5.677-17.993 4.178-22.272l181.391-78.773 78.773-181.391c4.423-10.185 14.493-11.957 22.272-4.178l27.998 27.998c7.878 7.878 12.669 23.456 10.862 33.876l-26.256 151.359 141.313 141.313 150.068-310.285c4.841-10.010 15.286-11.604 23.064-3.826l42.060 42.060c7.897 7.897 12.291 23.383 9.926 34.088l-83.804 379.277 113.051 113.051c42.394 42.394 70.457 99.119 41.796 127.78s-85.386 0.598-127.78-41.796l-113.051-113.051-379.277 83.804c-10.93 2.415-26.31-2.148-34.088-9.926l-42.060-42.060c-7.897-7.897-6.18-18.225 3.826-23.064l310.285-150.068-141.313-141.313-151.359 26.256c-10.832 1.879-26.097-3.082-33.876-10.862l-27.998-27.998z" />
<glyph unicode="&#xe618;" glyph-name="bed" data-tags="bed" d="M896 298.666h42.667v-213.727c0-23.347-18.938-42.273-42.667-42.273-23.564 0-42.667 19.242-42.667 42.273v128.393h-640v85.333h682.667zM213.333 512h682.668c23.563 0 42.665-18.916 42.665-43.066v-127.6h-725.333v170.667zM85.333 639.68c0 23.741 18.938 42.986 42.667 42.986 23.564 0 42.667-19.154 42.667-42.986v-554.028c0-23.741-18.938-42.986-42.667-42.986-23.564 0-42.667 19.154-42.667 42.986v554.028z" />
<glyph unicode="&#xe619;" glyph-name="wifi" data-tags="wifi" d="M503.449 0l60.288 80.137c-18.953 6.857-39.034 11.291-60.288 11.291-20.126 0-39.124-4.114-57.22-10.286l57.22-81.143zM338.739 233.6l53.158-75.383c34.070 15.68 71.75 24.64 111.552 24.64 41.922 0 81.543-10.011 116.967-27.291l55.731 74.057c-51.353 28.434-110.153 44.663-172.697 44.663-59.341 0-115.252-14.857-164.71-40.686zM233.234 383.223l52.527-74.469c64.62 36.206 138.763 56.96 217.688 56.96 83.077 0 160.694-23.269 227.616-63.086l54.918 73.051c-82.4 51.291-178.925 81.463-282.534 81.463-98.465 0-190.567-27.2-270.215-73.92zM180.707 457.737c94.584 57.28 204.737 90.834 322.741 90.834 124.142 0 239.71-36.983 337.452-99.886l55.099 73.234c-113.086 74.423-247.697 118.080-392.551 118.080-137.725 0-265.928-39.771-375.449-107.52l52.707-74.743z" />
<glyph unicode="&#xe61a;" glyph-name="restaurant" data-tags="restaurant" d="M674.584 517.113l-19.573 19.573 124.729 124.729c10.766 10.766 10.912 28.64-0.023 39.575-11.011 11.011-28.653 10.945-39.575 0.023l-124.729-124.729-0.549 0.549c-26.235-26.235-45.597-60.34-45.597-60.34-11.327-17.641-8.233-43.239 6.17-57.641l11.73-11.73-415.635-389.697c-15.403-14.442-15.476-37.488-0.848-52.117l27.918-27.918c14.551-14.551 38.009-14.296 52.222 0.742l391.301 414.031 13.151-13.151c14.364-14.364 40.209-17.165 57.641-6.17 0 0 24.041 13.649 47.281 33.554l0.615-0.615 137.472 137.472c11.022 11.022 11.072 28.8 0.137 39.735-11.011 11.011-28.725 10.873-39.735-0.137l-124.921-124.921-19.582 19.582 124.74 124.74c11.022 11.022 11.072 28.8 0.137 39.735-11.011 11.011-28.725 10.873-39.735-0.137l-124.74-124.74zM488.971 420.832l-266.657 266.657c-14.16 14.16-37.8 14.428-52.216 0.012l-26.695-26.695c-29.362-29.362-29.028-76.566 0.292-105.887l183.143-183.143c14.16-14.16 37.8-14.428 52.216-0.012l23.784 23.784 28.646-32.202 57.486 57.486zM607.277 302.526l245.778-245.778c14.532-14.532 14.003-37.642-1.003-51.455l-28.791-26.501c-15.086-13.886-38.192-12.916-52.233 2.868l-228.149 256.467 64.399 64.399z" />
<glyph unicode="&#xe61b;" glyph-name="nightlife" data-tags="nightlife" d="M356.848 266.705v0c-12.179-1.227-25.095-1.864-38.788-1.864s-26.609 0.637-38.788 1.864v-232.572h77.576v232.572zM162.909 14.933c0-10.294 8.691-19.2 19.411-19.2h271.481c10.459 0 19.411 8.596 19.411 19.2 0 10.294-8.691 19.2-19.411 19.2h-271.481c-10.459 0-19.411-8.596-19.411-19.2zM492.606 725.333h-349.091c0 0-155.152-422.4 174.545-422.4s174.545 422.4 174.545 422.4zM173.684 688.829h288.753c0 0 128.335-349.392-144.377-349.392s-144.377 349.392-144.377 349.392zM318.061 377.1c-116.979 0-139.886 81.955-136.625 156.233 0 0 68.313 0 136.625 0s136.625 0 136.625 0c3.261-74.278-19.646-156.233-136.625-156.233zM744.727 228.305v0c-12.179-1.227-25.095-1.864-38.788-1.864s-26.609 0.637-38.788 1.864v-232.572h77.576v232.572zM550.788-23.467c0-10.294 8.691-19.2 19.411-19.2h271.481c10.459 0 19.411 8.596 19.411 19.2 0 10.294-8.691 19.2-19.411 19.2h-271.481c-10.459 0-19.411-8.596-19.411-19.2zM880.485 686.933h-349.091c0 0-155.152-422.4 174.545-422.4s174.545 422.4 174.545 422.4zM561.563 650.429h288.753c0 0 128.335-349.392-144.377-349.392s-144.377 349.392-144.377 349.392zM705.939 338.7c-116.979 0-139.886 81.955-136.625 156.233 0 0 68.313 0 136.625 0s136.625 0 136.625 0c3.261-74.278-19.646-156.233-136.625-156.233z" />
<glyph unicode="&#xe61c;" glyph-name="beach" data-tags="beach" d="M710.048 671.236c-11.59 6.36-23.516 12.409-35.762 18.119-12.256 5.715-24.57 10.957-36.908 15.733-11.736-4.518-79.767-32.415-125.353-88.364-37.311-45.793-69.36-105.82-83.247-133.388 90.855 17.763 200.705-33.461 245.498-114.478 12.192 28.358 37.575 91.493 48.671 149.51 13.573 70.966-8.854 141.092-12.899 152.866zM747.058 649.152c166.065-107.505 248.323-280.784 184.090-418.532-34.86 94.3-127.070 143.464-221.705 121.88 12.197 28.374 37.565 91.483 48.657 149.478 12.125 63.394-4.478 126.119-11.043 147.175zM596.539 719.188c-189.287 57.559-375.72 7.284-438.773-127.934 94.646 33.911 191.579-5.124 235.874-91.493 13.895 27.582 45.934 87.58 83.231 133.356 40.655 49.897 99.162 77.483 119.668 86.071zM525.532 462.132l70.308-32.785-194.416-416.928c-9.143-19.607-32.158-28.225-51.708-19.109-19.415 9.053-27.645 32.495-18.599 51.894l194.416 416.928z" />
<glyph unicode="&#xe61d;" glyph-name="hotel" data-tags="hotel" d="M597.333-42.667h170.667v597.333h-512v-597.333h170.667v85.335c0 47.128 37.876 85.332 85.333 85.332 47.128 0 85.333-37.933 85.333-85.332v-85.335zM320 469.333h85.333v-106.667h-85.333v106.667zM469.333 469.333h85.333v-106.667h-85.333v106.667zM618.667 469.333h85.333v-106.667h-85.333v106.667zM320 298.666h85.333v-106.667h-85.333v106.667zM469.333 298.666h85.333v-106.667h-85.333v106.667zM618.667 298.666h85.333v-106.667h-85.333v106.667zM272.262 708.599c5.533 9.242 18.791 16.734 29.188 16.734h421.419c10.587 0 23.734-7.624 29.188-16.734l56.591-94.532c5.533-9.242 1.352-16.734-9.001-16.734h-574.975c-10.504 0-14.455 7.624-9.001 16.734l56.591 94.532z" />
<glyph unicode="&#xe61e;" glyph-name="recreation" data-tags="recreation" d="M530.575 168.762c-32.122 13.603-63.597 34.839-93.24 64.481-118.794 118.794-102.571 267.010-1.148 368.433s249.475 170.28 394.668 25.087c145.193-145.193 76.336-293.245-25.087-394.668-4.67-4.67-9.44-9.16-14.302-13.464-3.684 4.695-7.689 9.22-12.015 13.546-58.318 58.318-152.871 58.318-211.189 0-18.313-18.313-30.876-40.2-37.688-63.416zM445.62 153.456l-140.566-155.46c-13.697-15.148-36.504-15.724-50.902-1.326l-53.391 53.391c-14.416 14.416-13.546 37.455 1.326 50.902l155.46 140.566c11.612-16.338 25.065-32.267 40.435-47.638s31.299-28.823 47.638-40.435zM608.549 62.029c36.241-36.241 94.984-36.255 131.206-0.033s36.208 94.966-0.033 131.206c-36.241 36.241-94.984 36.255-131.206 0.033s-36.208-94.966 0.033-131.206z" />
<glyph unicode="&#xe61f;" glyph-name="profile" data-tags="profile" d="M382.908 265.693l-177.544-73.23c-19.167-7.905-34.698-31.227-34.698-52.093v-121.305c0-10.473 8.494-19.065 18.971-19.065h644.725c10.339 0 18.971 8.536 18.971 19.065v121.305c0 20.699-15.674 44.278-35.008 52.291l-177.013 73.367c-29.394-44.736-73.516-75.152-129.313-75.152-55.657 0-99.698 30.264-129.092 74.816zM512 305.403c106.667 0 170.667 119.195 170.667 229.053s-42.667 190.877-170.667 190.877c-128 0-170.667-81.020-170.667-190.877s64-229.053 170.667-229.053z" />
<glyph unicode="&#xe620;" glyph-name="group" data-tags="group" d="M590.89 376.47c5.35 8.735 13.047 16.084 21.774 19.862l80.99 35.062c15.309-24.355 38.247-40.9 67.235-40.9 29.061 0 52.041 16.628 67.35 41.083l81.018-35.246c16.242-7.066 29.409-27.052 29.409-45.451v-178.882c0-9.053-7.426-16.392-16.201-16.392h-161.576v122.405c0 19.223-14.459 41.444-32.294 49.203l-113.22 49.255h-24.484zM263.111 155.608h-161.576c-8.948 0-16.201 7.584-16.201 16.392v178.882c0 18.036 12.903 38.243 29.553 45.451l80.99 35.062c15.309-24.355 38.247-40.9 67.235-40.9 29.061 0 52.041 16.628 67.35 41.083l81.018-35.246c8.576-3.731 16.294-11.063 21.67-19.862h-23.813l-113.773-49.255c-17.897-7.748-32.452-29.788-32.452-49.203v-122.405zM263.111 453.103c55.556 0 88.889 65.161 88.889 125.216s-22.222 104.347-88.889 104.347c-66.667 0-88.889-44.291-88.889-104.347s33.333-125.216 88.889-125.216zM760.889 453.103c55.556 0 88.889 65.161 88.889 125.216s-22.222 104.347-88.889 104.347c-66.667 0-88.889-44.291-88.889-104.347s33.333-125.216 88.889-125.216zM444.765 318.453l-80.99-35.062c-16.65-7.208-29.553-27.415-29.553-45.451v-178.882c0-8.809 7.254-16.392 16.201-16.392h323.153c8.775 0 16.201 7.339 16.201 16.392v178.882c0 18.399-13.167 38.385-29.409 45.451l-81.018 35.246c-15.309-24.456-38.289-41.083-67.35-41.083-28.988 0-51.926 16.544-67.235 40.9zM512 340.162c55.556 0 88.889 65.161 88.889 125.216s-22.222 104.347-88.889 104.347c-66.667 0-88.889-44.291-88.889-104.347s33.333-125.216 88.889-125.216z" />
<glyph unicode="&#xe621;" glyph-name="picture" data-tags="picture" d="M279.273 569.725h42.524l41.889 99.488c3.128 7.43 12.717 13.454 21.005 13.454h254.64c8.472 0 18.084-6.517 21.005-13.454l41.889-99.488h197.559c21.475 0 38.883-17.536 38.883-38.756v-449.547c0-21.404-17.046-38.756-38.883-38.756h-775.567c-21.475 0-38.883 17.536-38.883 38.756v449.547c0 21.404 17.046 38.756 38.883 38.756h38.692v23.13c0 8.018 6.931 14.517 15.213 14.517h85.939c8.402 0 15.213-6.949 15.213-14.517v-23.13zM512 117.96c107.11 0 193.939 84.276 193.939 188.235s-86.83 188.235-193.939 188.235c-107.11 0-193.939-84.276-193.939-188.235s86.83-188.235 193.939-188.235zM512 165.019c80.332 0 145.455 63.207 145.455 141.176s-65.122 141.176-145.455 141.176c-80.332 0-145.455-63.207-145.455-141.176s65.122-141.176 145.455-141.176zM744.727 419.137c21.422 0 38.788 16.855 38.788 37.647s-17.366 37.647-38.788 37.647c-21.422 0-38.788-16.855-38.788-37.647s17.366-37.647 38.788-37.647z" />
<glyph unicode="&#xe622;" glyph-name="comment" data-tags="comment" d="M256 128v-213.333l248.889 213.333h391.461c22.891 0 42.317 19.074 42.317 42.603v469.461c0 23.51-18.946 42.603-42.317 42.603h-768.699c-22.891 0-42.317-19.074-42.317-42.603v-469.461c0-23.51 18.946-42.603 42.317-42.603h128.35zM213.333 554.666h341.333v-42.667h-341.333v42.667zM213.333 426.666h597.333v-42.667h-597.333v42.667zM213.333 298.666h469.333v-42.667h-469.333v42.667z" />
<glyph unicode="&#xe623;" glyph-name="renovation" data-tags="renovation" d="M490.667 298.666v109.066c0 10.457 8.227 18.934 19.336 18.934h3.995c0.768 0 1.525-0.043 2.269-0.126v0.126h379.733v149.333h-42.667v-68.341c0-21.167-16.875-38.326-38.659-38.326h-605.348c-21.351 0-38.659 16.797-38.659 38.326v179.348c0 21.167 16.875 38.326 38.659 38.326h605.348c21.351 0 38.659-16.797 38.659-38.326v-68.341h65.997c10.679 0 19.336-8.913 19.336-19.204v-196.259c0-10.606-8.227-19.204-19.336-19.204h-385.997v-85.333h44.422c10.812 0 19.578-8.742 19.578-19.571v-344.859c0-10.809-8.232-19.571-19.578-19.571h-131.511c-10.812 0-19.578 8.742-19.578 19.571v344.859c0 10.809 8.232 19.571 19.578 19.571h44.422z" />
<glyph unicode="&#xe624;" glyph-name="video" data-tags="video" d="M341.333-42.667v140.742c0 16.527 12.964 29.925 30.291 29.925h280.751c16.729 0 30.291-13.113 30.291-29.925v-140.742h170.667v768h-170.667v-140.742c0-16.527-12.964-29.925-30.291-29.925h-280.751c-16.729 0-30.291 13.113-30.291 29.925v140.742h-170.667v-768h170.667zM341.333 439.466c0 16.495 12.964 29.867 30.291 29.867h280.751c16.729 0 30.291-13.764 30.291-29.867v-196.265c0-16.495-12.964-29.867-30.291-29.867h-280.751c-16.729 0-30.291 13.764-30.291 29.867v196.265zM213.333 234.666h85.333v-85.333h-85.333v85.333zM213.333 85.333h85.333v-85.333h-85.333v85.333zM213.333 384h85.333v-85.333h-85.333v85.333zM213.333 533.333h85.333v-85.333h-85.333v85.333zM213.333 682.666h85.333v-85.333h-85.333v85.333zM725.333 85.333h85.333v-85.333h-85.333v85.333zM725.333 682.666h85.333v-85.333h-85.333v85.333zM725.333 533.333h85.333v-85.333h-85.333v85.333zM725.333 384h85.333v-85.333h-85.333v85.333zM725.333 234.666h85.333v-85.333h-85.333v85.333z" />
<glyph unicode="&#xe625;" glyph-name="profile-edit" data-tags="profile-edit" d="M685.699 725.333h-465.937c-27.155 0-49.096-21.509-49.096-48.042v-671.916c0-26.7 21.981-48.042 49.096-48.042h584.475c27.155 0 49.096 21.509 49.096 48.042v465.214l-85.333-85.333v-342.589h-512v597.333h344.366l85.333 85.333zM782.013 701.856l90.51-90.51-331.869-331.869-90.51 90.51 331.869 331.869zM404.889 234.222l105.595 15.085-90.51 90.51-15.085-105.595zM842.353 762.195c16.662 16.662 43.525 16.815 60.308 0.031l30.233-30.233c16.645-16.645 16.747-43.53-0.031-60.308l-30.17-30.17-90.51 90.51 30.17 30.17z" />
<glyph unicode="&#xe626;" glyph-name="statistics" data-tags="statistics" d="M128 85.333h810.667v-85.333h-810.667v85.333zM213.333 469.438c0 23.506 18.887 42.562 42.622 42.562h42.756c23.54 0 42.622-19.043 42.622-42.562v-298.876c0-23.506-18.887-42.562-42.622-42.562h-42.756c-23.54 0-42.622 19.043-42.622 42.562v298.876zM725.333 640.064c0 23.529 18.887 42.603 42.622 42.603h42.756c23.54 0 42.622-19.093 42.622-42.603v-469.461c0-23.529-18.887-42.603-42.622-42.603h-42.756c-23.54 0-42.622 19.093-42.622 42.603v469.461zM469.333 341.726c0 23.347 18.887 42.273 42.622 42.273h42.756c23.54 0 42.622-19.242 42.622-42.273v-171.454c0-23.347-18.887-42.273-42.622-42.273h-42.756c-23.54 0-42.622 19.242-42.622 42.273v171.454z" />
<glyph unicode="&#xe627;" glyph-name="settings" data-tags="settings" d="M861.867 418.133h-82.048c-30.413 0-45.645 36.77-24.141 58.266l58.018 58.018c13.329 13.338 13.329 34.944 0 48.273l-60.339 60.339c-13.329 13.338-34.944 13.338-48.273 0l-58.018-58.018c-21.495-21.495-58.266-6.272-58.266 24.141v82.048c0 18.85-15.283 34.133-34.133 34.133h-85.333c-18.85 0-34.133-15.283-34.133-34.133v-82.048c0-30.413-36.77-45.636-58.266-24.141l-58.018 58.018c-13.338 13.338-34.944 13.338-48.273 0l-60.339-60.339c-13.329-13.329-13.329-34.935 0-48.273l58.018-58.018c21.495-21.495 6.272-58.266-24.141-58.266h-82.048c-18.85 0-34.133-15.283-34.133-34.133v-85.333c0-18.85 15.283-34.133 34.133-34.133h82.048c30.413 0 45.636-36.762 24.141-58.266l-58.018-58.018c-13.338-13.329-13.338-34.944 0-48.273l60.339-60.339c13.329-13.329 34.935-13.329 48.273 0l58.018 58.018c21.495 21.504 58.266 6.272 58.266-24.141v-82.048c0-18.85 15.283-34.133 34.133-34.133h85.333c18.85 0 34.133 15.283 34.133 34.133v82.048c0 30.413 36.77 45.645 58.266 24.141l58.018-58.018c13.329-13.329 34.944-13.329 48.273 0l60.339 60.339c13.329 13.329 13.329 34.944 0 48.273l-58.018 58.018c-21.495 21.504-6.272 58.266 24.141 58.266h82.048c18.85 0 34.133 15.283 34.133 34.133v85.333c0 18.85-15.283 34.133-34.133 34.133v0zM512 213.333c-70.699 0-128 57.316-128 128 0 70.699 57.301 128 128 128s128-57.301 128-128c0-70.684-57.301-128-128-128v0z" />
<glyph unicode="&#xe628;" glyph-name="preview" data-tags="preview" d="M512 42.666c-235.641 0-426.667 298.667-426.667 298.667s191.025 298.667 426.667 298.667c235.641 0 426.667-298.667 426.667-298.667s-191.025-298.667-426.667-298.667zM512 170.666c94.257 0 170.667 76.41 170.667 170.667s-76.41 170.667-170.667 170.667c-94.257 0-170.667-76.41-170.667-170.667s76.41-170.667 170.667-170.667zM597.333 341.333c0-47.128-38.205-85.333-85.333-85.333s-85.333 38.205-85.333 85.333c0 47.128 38.205 85.333 85.333 85.333s85.333-38.205 85.333-85.333z" />
<glyph unicode="&#xe629;" glyph-name="up-arrow" data-tags="up-arrow" d="M536.873 541.651c-13.71 17.446-36.084 17.261-49.648 0l-266.711-339.395c-13.71-17.446-7.241-31.589 14.755-31.589h553.56c21.859 0 28.32 14.328 14.755 31.589l-266.711 339.395z" />
<glyph unicode="&#xe62a;" glyph-name="down-arrow" data-tags="down-arrow" d="M487.127 141.015c13.71-17.446 36.084-17.261 49.648 0l266.711 339.395c13.71 17.446 7.241 31.589-14.755 31.589h-553.56c-21.859 0-28.32-14.328-14.755-31.589l266.711-339.395z" />
<glyph unicode="&#xe62b;" glyph-name="up-arrow-line" data-tags="up-arrow-line" d="M512.622 417.822l-239.274-239.274c-16.357-16.357-43.597-16.388-60.38 0.395l-28.981 28.981c-17.143 17.143-16.959 43.815-0.395 60.38l299.037 299.037c8.114 8.114 18.907 12.211 29.773 12.23 11.286 0.175 21.993-4.011 30.212-12.23l299.037-299.037c16.357-16.357 16.388-43.597-0.395-60.38l-28.981-28.981c-17.143-17.143-43.815-16.959-60.38-0.395l-239.274 239.274z" />
<glyph unicode="&#xe62c;" glyph-name="down-arrow-line" data-tags="down-arrow-line" d="M512.622 271.25l-239.274 239.274c-16.357 16.357-43.597 16.388-60.38-0.395l-28.981-28.981c-17.143-17.143-16.959-43.815-0.395-60.38l299.037-299.037c8.114-8.114 18.907-12.211 29.773-12.23 11.286-0.175 21.993 4.011 30.212 12.23l299.037 299.037c16.357 16.357 16.388 43.597-0.395 60.38l-28.981 28.981c-17.143 17.143-43.815 16.959-60.38 0.395l-239.274-239.274z" />
<glyph unicode="&#xe62d;" glyph-name="dislike" data-tags="dislike" d="M297.086 554.097v0zM742.149 559.753h0.181c33.329 0 60.435-26.946 60.435-60.185 0-16.715-6.748-31.746-17.662-42.605 24.625-7.387 42.946-30.426 42.946-57.703 0-16.689-6.664-31.698-17.445-42.553 24.714-7.322 42.729-30.173 42.729-57.421 0-33.657-26.911-60.52-60.106-60.52h-192.733c0-25.077 20.227-40.123 50.568-100.308 17.748-35.205 29.503-191.736-60.681-180.555-40.454 5.015-15.17 55.17-65.738 130.401-0.726 1.108-126.42 175.54-227.556 200.617l-126.42 25.077v225.694l75.852 25.077 53.594 34.001c0 0 79.814 41.23 112.511 41.23 8.377 0 19.834 0 33.377 0 85.796 0 256.039 0 256.039 0 27.581 0 50.158-22.455 50.158-50.154 0-11.332-3.737-21.735-10.048-30.092z" />
<glyph unicode="&#xe62e;" glyph-name="sun-half" data-tags="sun-half" d="M512 725.333c-21.356 0-38.4-17.189-38.4-38.393v-135.721c12.457 2.264 25.29 3.447 38.4 3.447v170.667zM512-42.667c-21.208 0-38.4 17.039-38.4 38.393v135.721c12.457-2.264 25.29-3.447 38.4-3.447v-170.667zM512 512c-94.257 0-170.667-76.41-170.667-170.667s76.41-170.667 170.667-170.667v341.333zM336.448 220.086l-96.033-96.033c-15.099-15.099-14.991-39.304 0.005-54.301 15.101-15.101 39.307-14.998 54.301-0.005l96.033 96.033c-21.209 14.676-39.63 33.097-54.306 54.306zM302.113 379.733h-135.721c-21.354 0-38.393-17.192-38.393-38.4 0-21.356 17.189-38.4 38.393-38.4h135.721c-2.264 12.457-3.447 25.29-3.447 38.4s1.183 25.943 3.447 38.4zM390.753 516.885l-99.233 99.233c-15.099 15.099-39.304 14.991-54.301-0.005-15.101-15.101-14.998-39.307-0.005-54.301l99.233-99.233c14.676 21.209 33.097 39.63 54.306 54.306z" />
<glyph unicode="&#xe62f;" glyph-name="transfer-bus" data-tags="transfer-bus" d="M661.333 64v-87.555c0-10.862 8.319-19.112 18.58-19.112h69.507c10.21 0 18.58 8.557 18.58 19.112v87.555h47.658c20.801 0 37.676 16.982 37.676 37.931v547.539c0 42.159-33.877 75.863-75.666 75.863h-531.335c-41.812 0-75.666-33.965-75.666-75.863v-547.539c0-20.919 16.868-37.931 37.676-37.931h47.658v-87.555c0-10.862 8.319-19.112 18.58-19.112h69.507c10.21 0 18.58 8.557 18.58 19.112v87.555h298.667zM256 640h512v-64h-512v64zM256 533.333h512v-234.667h-512v234.667zM256 215.286c0 10.703 8.37 19.38 18.58 19.38h69.507c10.261 0 18.58-8.219 18.58-19.38v-38.040c0-10.703-8.37-19.38-18.58-19.38h-69.507c-10.261 0-18.58 8.219-18.58 19.38v38.040zM661.333 215.286c0 10.703 8.37 19.38 18.58 19.38h69.507c10.261 0 18.58-8.219 18.58-19.38v-38.040c0-10.703-8.37-19.38-18.58-19.38h-69.507c-10.261 0-18.58 8.219-18.58 19.38v38.040zM256 64h106.667v-42.667h-106.667v42.667zM661.333 64h106.667v-42.667h-106.667v42.667z" />
<glyph unicode="&#xe630;" glyph-name="transfer-train" data-tags="transfer-train" d="M192 644.341v-520.683c0-44.288 36.29-80.992 81.056-80.992h477.887c44.814 0 81.056 36.261 81.056 80.992v520.683c0 44.288-36.29 80.992-81.056 80.992h-477.887c-44.814 0-81.056-36.261-81.056-80.992zM277.333 599.471c0 22.383 17.825 40.528 40.829 40.528h387.675c22.549 0 40.829-18.121 40.829-40.528v-238.944c0-22.383-17.825-40.528-40.829-40.528h-387.675c-22.549 0-40.829 18.121-40.829 40.528v238.944zM337.067 118.247c-32.99 0-59.733 26.744-59.733 59.733s26.744 59.733 59.733 59.733c32.99 0 59.733-26.744 59.733-59.733s-26.744-59.733-59.733-59.733zM686.933 118.247c-32.99 0-59.733 26.744-59.733 59.733s26.744 59.733 59.733 59.733c32.99 0 59.733-26.744 59.733-59.733s-26.744-59.733-59.733-59.733zM272 0h80l-60-121.905h-80l60 121.905zM672 0h80l60-121.905h-80l-60 121.905z" />
<glyph unicode="&#xe631;" glyph-name="rental-car" data-tags="rental-car" d="M871.919 417.185h28.578c21.055 0 38.169 16.98 38.169 37.926 0 21.092-17.089 37.926-38.169 37.926h-64.648c-35.18 66.125-72.734 120.997-72.734 120.997-11.107 17.182-36.823 36.712-56.694 42.95 0 0-60.022 25.682-194.422 25.682s-193.683-25.48-193.683-25.48c-20.643-6.041-46.135-25.804-57.752-43.451 0 0-37.657-54.609-72.831-120.698h-64.231c-21.055 0-38.169-16.98-38.169-37.926 0-21.092 17.089-37.926 38.169-37.926h28.257c-14.102-34.781-23.76-68.416-23.76-95.302 0-82.406 0-155.751 0-155.751 0-21.045 17.051-38.132 38.085-38.132h4.581v-109.124c0-10.728 8.456-18.876 18.887-18.876h90.226c10.488 0 18.887 8.451 18.887 18.876v109.124h426.667v-109.124c0-10.728 8.456-18.876 18.887-18.876h90.226c10.488 0 18.887 8.451 18.887 18.876v109.124h4.581c20.602 0 38.085 17.215 38.085 38.45 0 0 0 71.402 0 155.433 0 26.612-9.802 60.318-24.081 95.302zM170.667 128h128v-42.667h-128v42.667zM725.333 128h128v-42.667h-128v42.667zM245.333 192c-29.455 0-53.333 23.878-53.333 53.333s23.878 53.333 53.333 53.333c29.455 0 53.333-23.878 53.333-53.333s-23.878-53.333-53.333-53.333zM778.667 192c-29.455 0-53.333 23.878-53.333 53.333s23.878 53.333 53.333 53.333c29.455 0 53.333-23.878 53.333-53.333s-23.878-53.333-53.333-53.333zM325.034 582.062c4.388 9.505 16.095 18.864 26.688 20.859 0 0 70.755 15.746 160.277 15.746s160.815-15.837 160.815-15.837c10.082-1.965 21.875-11.4 26.199-20.768l65.573-142.056c8.839-19.149-1.258-34.672-22.625-34.672h-459.877c-21.335 0-31.605 15.218-22.625 34.672l65.573 142.056z" />
<glyph unicode="&#xe632;" glyph-name="plus" data-tags="plus" d="M597.333 426.666v170.92c0 46.914-38.205 85.080-85.333 85.080-47.457 0-85.333-38.092-85.333-85.080v-170.92h-170.92c-46.914 0-85.080-38.205-85.080-85.333 0-47.457 38.092-85.333 85.080-85.333h170.92v-170.92c0-46.914 38.205-85.080 85.333-85.080 47.457 0 85.333 38.092 85.333 85.080v170.92h170.92c46.914 0 85.080 38.205 85.080 85.333 0 47.457-38.092 85.333-85.080 85.333h-170.92z" />
<glyph unicode="&#xe633;" glyph-name="minus" data-tags="minus" d="M255.747 426.666c-46.914 0-85.080-38.205-85.080-85.333 0-47.457 38.092-85.333 85.080-85.333h512.507c46.914 0 85.080 38.205 85.080 85.333 0 47.457-38.092 85.333-85.080 85.333h-512.507z" />
<glyph unicode="&#xe634;" glyph-name="facebook" data-tags="facebook" d="M512-42.667c212.077 0 384 171.923 384 384s-171.923 384-384 384c-212.077 0-384-171.923-384-384s171.923-384 384-384zM604.636 329.655h-69.032v-252.902h-104.589v252.902h-49.743v88.88h49.743v57.515c0 41.13 19.537 105.534 105.52 105.534l77.473-0.324v-86.273h-56.212c-9.22 0-22.185-4.607-22.185-24.227v-52.309h78.163l-9.138-88.797z" />
<glyph unicode="&#xe635;" glyph-name="google-plus" data-tags="google-plus" d="M512-42.667c212.077 0 384 171.923 384 384s-171.923 384-384 384c-212.077 0-384-171.923-384-384s171.923-384 384-384zM261.693 324.145c-3.101 81.642 68.411 157.090 150.135 158.069 41.653 3.553 82.176-12.622 113.698-39.004-12.931-14.217-26.087-28.271-40.14-41.427-27.75 16.86-61.162 29.708-93.594 18.297-52.311-14.895-83.99-76.659-64.632-127.833 16.031-53.447 81.040-82.779 131.988-60.326 26.381 9.446 43.775 33.788 51.407 59.943-30.235 0.602-60.477 0.226-90.712 1.061-0.075 17.989-0.151 35.91-0.075 53.899 50.421 0.075 100.918 0.226 151.415-0.226 3.101-44.076-3.402-91.246-32.056-126.622-39.236-50.497-111.727-65.317-170.698-45.507-62.585 20.556-108.099 83.607-106.737 149.676zM669.466 392.186h44.973c0.082-15.046 0.226-30.167 0.308-45.205 15.039-0.151 30.16-0.226 45.205-0.301v-45.055c-15.039-0.075-30.16-0.151-45.205-0.226-0.151-15.121-0.226-30.16-0.308-45.281-15.039 0.075-30.091 0-45.055 0-0.144 15.121-0.144 30.16-0.301 45.205-15.039 0.157-30.16 0.226-45.205 0.308v45.055c15.046 0.075 30.091 0.151 45.205 0.301 0.075 15.032 0.226 30.153 0.383 45.199z" />
<glyph unicode="&#xe636;" glyph-name="outgoing-flight" data-tags="outgoing-flight" d="M431.521 336.967c-66.080-29.421-116.873-52.035-123.035-54.779-17.886-7.963-136.572 64.028-136.572 64.028-4.443 2.647-11.278 2.884-15.842 0.853l-66.487-29.602c-4.696-2.091-5.498-6.485-2.086-9.946 0 0 120.755-122.623 144.132-143.944s106.959-44.97 157.401-22.512c56.195 25.020 393.88 175.367 447.198 199.105s125.742 100.23 109.301 137.157c-16.441 36.926-121.746 34.288-175.064 10.549-15.841-7.053-54.159-24.113-102.339-45.564l-282.31 110.553c-4.318 1.957-11.585 1.951-16.114-0.065l-72.463-32.262c-4.382-1.951-5.235-6.326-1.577-9.625l174.032-156.948z" />
<glyph unicode="&#xe637;" glyph-name="return-flight" data-tags="return-flight" d="M426.271 383.363c-67.972 24.74-120.218 43.756-126.557 46.063-18.398 6.696-53.764 140.928-53.764 140.928-1.357 4.99-6.109 9.91-10.803 11.618l-68.39 24.892c-4.831 1.758-8.459-0.846-8.409-5.705 0 0 1.683-172.091 3.688-203.667s45.701-106.649 97.586-125.534c57.804-21.039 405.153-147.464 459.998-167.425s160.077-15.248 173.902 22.735c13.825 37.983-63.758 109.236-118.603 129.198-16.294 5.931-55.709 20.277-105.268 38.314l-126.28 275.634c-1.747 4.407-6.978 9.451-11.637 11.147l-74.537 27.129c-4.508 1.641-8.16-0.914-7.82-5.828l16.162-233.792z" />
<glyph unicode="&#xe638;" glyph-name="fancy-arrow" data-tags="fancy-arrow" d="M677.899 279.926h-485.298c-35.678 0-64.601 27.785-64.601 62.599 0 34.572 28.537 62.599 64.601 62.599h482.885l-131.18 127.846c-25.191 24.551-25.454 64.101-0.195 88.718 25.084 24.446 65.752 24.447 91.031-0.19l241.841-235.695c12.628-12.307 18.992-28.384 19.017-44.459-0.025-15.98-6.344-32.099-19.017-44.45l-241.841-235.695c-25.191-24.551-65.773-24.807-91.031-0.19-25.084 24.446-25.085 64.081 0.195 88.718l133.593 130.198z" />
<glyph unicode="&#xe639;" glyph-name="circle" data-tags="circle" d="M682.667 341.333c0-94.257-76.41-170.667-170.667-170.667s-170.667 76.41-170.667 170.667c0 94.257 76.41 170.667 170.667 170.667s170.667-76.41 170.667-170.667z" />
<glyph unicode="&#xe63a;" glyph-name="checkmark" data-tags="checkmark" d="M443.584 263.943l-180.823 149.172c-24.573 20.272-61.991 17.292-82.903-7.21l-37.983-44.504c-21.086-24.706-17.7-60.999 7.174-81.519l271.302-223.813c12.287-10.136 27.784-14.459 42.824-13.185 15.192 1.238 29.709 8.246 40.212 20.551l378.853 443.89c20.723 24.28 17.795 61.188-7.127 81.747l-45.267 37.343c-25.129 20.73-62.137 17.294-83.123-7.294l-303.139-355.178z" />
<glyph unicode="&#xe63b;" glyph-name="capslock" data-tags="capslock" d="M512 725.333l-341.333-384h170.667v-213.333h341.333v213.333h170.667l-341.333 384zM341.333 42.666h341.333v-85.333h-341.333v85.333z" />
<glyph unicode="&#xe63c;" glyph-name="important-positive" data-tags="important-positive" d="M539.044 204.8c0-5.689-3.543-9.752-10.628-12.19s-13.545-3.657-19.38-3.657c-6.669 0-13.337 1.016-20.006 3.048s-10.42 6.298-11.253 12.8l-91.8 448.61c-5.835 25.194 1.25 50.59 21.256 76.19s55.015 38.4 105.030 38.4c47.514 0 81.69-13.003 102.529-39.010s28.758-51.2 23.757-75.581l-99.504-448.61zM602.812 6.095c0-24.53-9.339-45.9-28.019-64.111s-40.598-27.317-65.758-27.317c-25.16 0-47.079 9.106-65.758 27.317s-28.019 39.582-28.019 64.111c0 26.016 8.958 47.758 26.875 65.226s40.217 26.202 66.902 26.202c25.16 0 47.079-9.106 65.758-27.317s28.019-39.582 28.019-64.112z" />
<glyph unicode="&#xe63d;" glyph-name="vacation-package" data-tags="vacation-package" d="M853.333 111.003v-115.632c0-20.943-16.834-37.921-37.926-37.921-20.946 0-37.926 17.034-37.926 37.921v77.243h-530.963v76.777h606.815v-38.388zM284.444 264.556h530.679c21.103 0 38.21-17.039 38.21-38.388v-38.388h-568.889v76.777zM170.667 303.121c0 21.104 16.834 38.212 37.926 38.212 20.946 0 37.926-16.99 37.926-38.212v-307.46c0-21.104-16.834-38.212-37.926-38.212-20.946 0-37.926 16.99-37.926 38.212v307.46zM444.096 539.593c-53.132-19.338-93.971-34.203-98.926-36.006-14.381-5.234-102.415 56.948-102.415 56.948-3.506 2.431-9.439 3.181-13.384 1.745l-52.46-19.094c-4.275-1.556-4.955-5.209-2.255-8.427 0 0 85.034-101.633 104.112-119.454s80.944-40.88 121.502-26.118c45.184 16.445 316.697 115.268 359.567 130.872s103.518 71.291 92.715 100.973c-10.803 29.681-93.057 33.357-135.928 17.753-12.737-4.636-43.546-15.85-82.285-29.949l-213.6 101.286c-3.751 2.025-9.417 2.416-13.059 1.091l-58.263-21.206c-3.524-1.283-4.271-4.809-1.405-7.781l126.778-131.461z" />
<glyph unicode="&#xe63e;" glyph-name="star-half" data-tags="star-half" d="M512 768c-6.265 0.003-12.535-5.676-17.309-17.092l-101.739-243.291-264.076-21.057c-24.658-1.966-29.605-16.641-10.699-32.75l201.198-171.419-61.469-256.305c-5.74-23.932 6.764-33.147 28.009-20.24l226.084 137.347v624.807z" />
<glyph unicode="&#xe63f;" glyph-name="temperature" data-tags="temperature" d="M534.974 263.771v0 387.811c0 21.474-17.629 38.842-39.385 38.842-21.67 0-39.385-17.441-39.385-38.842v-426.564l-31.462-23.274c-29.623-21.913-47.307-56.006-47.307-93.139 0-64.266 52.899-116.364 118.154-116.364s118.154 52.098 118.154 116.364c0 37.133-17.684 71.225-47.307 93.139l-31.462 23.274v38.753zM613.744 263.771v0c47.831-35.383 78.769-91.716 78.769-155.166 0-107.11-88.165-193.939-196.923-193.939s-196.923 86.83-196.923 193.939c0 63.45 30.939 119.783 78.769 155.166v387.811c0 64.296 53.032 116.417 118.154 116.417 65.255 0 118.154-52.095 118.154-116.417v-387.811zM653.128 651.636c0 21.422 17.461 38.788 38.942 38.788h79.654c21.507 0 38.942-17.217 38.942-38.788 0-21.422-17.461-38.788-38.942-38.788h-79.654c-21.507 0-38.942 17.217-38.942 38.788zM653.128 496.485c0 21.422 17.461 38.788 38.942 38.788h79.654c21.507 0 38.942-17.217 38.942-38.788 0-21.422-17.461-38.788-38.942-38.788h-79.654c-21.507 0-38.942 17.217-38.942 38.788zM653.128 341.333c0 21.422 17.461 38.788 38.942 38.788h79.654c21.507 0 38.942-17.217 38.942-38.788 0-21.422-17.461-38.788-38.942-38.788h-79.654c-21.507 0-38.942 17.217-38.942 38.788zM495.59 31.030c43.503 0 78.769 34.732 78.769 77.576s-35.266 77.576-78.769 77.576c-43.503 0-78.769-34.732-78.769-77.576s35.266-77.576 78.769-77.576z" />
<glyph unicode="&#xe640;" glyph-name="water-temperature" data-tags="water-temperature" d="M67.949-11.955c6.315-12.552 17.77-29.628 34.993-46.744 29.8-29.615 66.735-47.968 110.397-47.968 43.398 0 67.282 13.966 101.909 47.713 0.602 0.587 0.602 0.587 1.197 1.166 21.088 20.551 29.172 25.323 46.225 25.323 19.486 0 29.684-5.69 53.558-27.382 1.125-1.022 1.125-1.022 2.271-2.064 34.845-31.651 58.080-44.757 98.168-44.757 41.056 0 63.701 13.821 95.647 46.593 0.883 0.906 0.883 0.906 1.749 1.795 20.34 20.866 28.588 25.815 47.268 25.815 18.685 0 26.644-4.746 48.267-26.235 34.376-34.163 57.528-47.968 101.063-47.968 43.662 0 80.597 18.353 110.397 47.968 10.022 9.96 18.539 20.54 25.664 31.162 2.531 3.773 4.729 7.322 6.601 10.579 1.227 2.134 1.998 3.57 2.727 5.004 9.221 18.327 1.746 40.613-16.696 49.777s-40.866 1.735-50.087-16.592c0.146 0.274-0.249-0.464-0.772-1.373-1.044-1.816-2.346-3.919-3.899-6.233-4.541-6.769-10.024-13.581-16.335-19.853-16.866-16.762-35.93-26.235-57.6-26.235-18.685 0-26.644 4.746-48.267 26.235-34.376 34.163-57.528 47.968-101.063 47.968-43.735 0-67.808-14.445-100.896-48.388-0.884-0.907-0.884-0.907-1.749-1.795-19.15-19.645-26.319-24.020-42.019-24.020-16.46 0-25.573 5.14-47.795 25.326-1.12 1.018-1.12 1.018-2.263 2.056-36.447 33.117-61.010 46.821-103.939 46.821-41.67 0-64.677-13.581-98.502-46.546-0.602-0.587-0.602-0.587-1.198-1.167-21.924-21.367-30.685-26.49-49.631-26.49-21.67 0-40.734 9.473-57.6 26.235-10.777 10.71-17.988 21.46-21.006 27.459-9.221 18.327-31.645 25.756-50.087 16.592s-25.916-31.449-16.696-49.777zM549.333 412.767v222.544c0 20.541-16.711 37.153-37.333 37.153-20.541 0-37.333-16.682-37.333-37.153v-259.612l-29.823-22.262c-28.079-20.961-44.842-53.571-44.842-89.089 0-61.472 50.143-111.304 111.998-111.304s111.998 49.833 111.998 111.304c0 35.518-16.763 68.129-44.842 89.089l-29.823 22.262v37.068zM623.998 412.767c45.339-33.844 74.665-87.728 74.665-148.419 0-102.453-83.572-185.507-186.663-185.507s-186.663 83.054-186.663 185.507c0 60.691 29.327 114.575 74.665 148.419v222.544c0 61.5 50.269 111.356 111.998 111.356 61.855 0 111.998-49.83 111.998-111.356v-222.544zM512 190.145c41.237 0 74.665 33.222 74.665 74.203s-33.429 74.203-74.665 74.203c-41.237 0-74.665-33.222-74.665-74.203s33.429-74.203 74.665-74.203z" />
<glyph unicode="&#xe641;" glyph-name="distance" data-tags="distance" d="M512-42.667c-212.077 0-384 171.923-384 384s171.923 384 384 384c212.077 0 384-171.923 384-384s-171.923-384-384-384zM512 25.599c174.375 0 315.733 141.359 315.733 315.733s-141.359 315.733-315.733 315.733c-174.375 0-315.733-141.359-315.733-315.733s141.359-315.733 315.733-315.733zM469.333 768h85.333v-213.333h-85.333v213.333zM469.333 128h85.333v-213.333h-85.333v213.333zM298.667 384v-85.333h-213.333v85.333h213.333zM938.667 384v-85.333h-213.333v85.333h213.333zM588.8 341.333c0-42.415-34.385-76.8-76.8-76.8s-76.8 34.385-76.8 76.8c0 42.415 34.385 76.8 76.8 76.8s76.8-34.385 76.8-76.8z" />
<glyph unicode="&#xe642;" glyph-name="region" data-tags="region" d="M537.516 78.132c201.282 20.254 358.484 192.365 358.484 401.688 0 111.183-44.351 211.867-116.101 284.874l-56.707-56.707c57.555-58.426 93.144-139.084 93.144-228.167 0-178.357-142.666-322.945-318.653-322.945-89.432 0-170.259 37.338-228.131 97.472l-56.707-56.707c63.609-65.94 149.328-109.88 245.006-119.508v-82.729h79.663v82.729zM298.526-44.966c0 22.295 18.15 40.368 40.385 40.368h317.547c22.304 0 40.385-17.918 40.385-40.368 0-22.295-18.15-40.368-40.385-40.368h-317.547c-22.304 0-40.385 17.918-40.385 40.368zM497.684 237.611c131.99 0 238.99 108.44 238.99 242.208s-106.999 242.208-238.99 242.208c-131.99 0-238.99-108.44-238.99-242.208s106.999-242.208 238.99-242.208z" />
<glyph unicode="&#xe643;" glyph-name="city" data-tags="city" d="M597.333 554.666v-597.333h298.667v597.333h-298.667zM704 320h85.333v-85.333h-85.333v85.333zM704 149.333h85.333v-85.333h-85.333v85.333zM704 490.666h85.333v-85.333h-85.333v85.333zM640 640v-85.333h213.333v85.333h-213.333zM682.667 725.333v-85.333h128v85.333h-128zM128 597.333v-637.754h384v723.088l-384-85.333zM192 320h85.333v-85.333h-85.333v85.333zM362.667 320h85.333v-85.333h-85.333v85.333zM192 149.333h85.333v-85.333h-85.333v85.333zM362.667 149.333h85.333v-85.333h-85.333v85.333zM362.667 490.666h85.333v-85.333h-85.333v85.333zM192 490.666h85.333v-85.333h-85.333v85.333z" />
<glyph unicode="&#xe644;" glyph-name="poi" data-tags="poi" d="M128 208l94.754 329.946c2.652 9.234 12.364 16.72 21.778 16.72h165.159c9.376 0 16.976-8.001 16.976-17.348v-242.636c0-9.581-8.138-17.348-17.438-17.348h-31.494c-9.631 0-17.438-8.001-17.438-17.348v-242.636c0-9.581-7.729-17.348-17.46-17.348h-197.376c-9.643 0-17.46 7.9-17.46 17.022v190.978zM663.704 259.985c0 9.581-8.138 17.348-17.438 17.348h-31.494c-9.631 0-17.438 8.001-17.438 17.348v242.636c0 9.581 7.562 17.348 16.976 17.348h165.159c9.376 0 19.055-7.241 21.778-16.72l94.754-329.946v-190.978c0-9.401-7.729-17.022-17.46-17.022h-197.376c-9.643 0-17.46 8.001-17.46 17.348v242.636zM469.333 516.456c0 9.321 7.875 16.877 17.268 16.877h50.796c9.537 0 17.268-7.808 17.268-16.877v-200.913c0-9.321-7.875-16.877-17.268-16.877h-50.796c-9.537 0-17.268 7.808-17.268 16.877v200.913zM277.333 705.769c0 10.805 8.894 19.564 19.523 19.564h110.288c10.782 0 19.523-8.37 19.523-19.564v-67.538c0-10.805-8.894-19.564-19.523-19.564h-110.288c-10.782 0-19.523 8.37-19.523 19.564v67.538zM597.333 705.769c0 10.805 8.894 19.564 19.523 19.564h110.288c10.782 0 19.523-8.37 19.523-19.564v-67.538c0-10.805-8.894-19.564-19.523-19.564h-110.288c-10.782 0-19.523 8.37-19.523 19.564v67.538z" />
<glyph unicode="&#xe645;" glyph-name="twitter" data-tags="twitter" d="M512-42.667c-212.077 0-384 171.923-384 384s171.923 384 384 384c212.077 0 384-171.923 384-384s-171.923-384-384-384zM747.214 449.363c-16.456-7.297-34.157-12.232-52.721-14.436 18.954 11.356 33.5 29.325 40.366 50.771-17.736-10.521-37.388-18.153-58.287-22.267-16.743 17.832-40.599 28.976-67.014 28.976-50.682 0-91.787-41.105-91.787-91.787 0-7.194 0.815-14.197 2.389-20.919-76.283 3.826-143.92 40.366-189.193 95.914-7.899-13.553-12.431-29.332-12.431-46.15 0-31.837 16.216-59.943 40.831-76.399-15.039 0.472-29.201 4.6-41.571 11.493-0.007-0.39-0.007-0.78-0.007-1.164 0-44.473 31.652-81.567 73.633-89.993-7.694-2.108-15.819-3.224-24.177-3.224-5.928 0-11.671 0.568-17.27 1.636 11.678-36.457 45.568-62.996 85.743-63.742-31.419-24.622-70.991-39.291-114.006-39.291-7.393 0-14.717 0.431-21.884 1.287 40.599-26.053 88.857-41.242 140.689-41.242 168.829 0 261.157 139.86 261.157 261.164 0 3.977-0.089 7.94-0.267 11.87 17.948 12.937 33.507 29.099 45.808 47.505z" />
<glyph unicode="&#xe646;" glyph-name="pinterest" data-tags="pinterest" d="M512-42.667c212.077 0 384 171.923 384 384s-171.923 384-384 384c-212.077 0-384-171.923-384-384s171.923-384 384-384zM542.995 211.124c-29.030 2.245-41.228 16.641-63.995 30.461-12.513-65.652-27.805-128.586-73.1-161.464-13.998 99.227 20.522 173.758 36.553 252.867-27.326 46 3.286 138.587 60.922 115.772 70.936-28.051-61.415-171.040 27.435-188.899 92.759-18.646 130.626 160.95 73.1 219.367-83.114 84.339-241.929 1.917-222.399-118.818 4.757-29.516 35.259-38.477 12.184-79.205-53.194 11.781-69.061 53.735-67.021 109.666 3.293 91.554 82.265 155.659 161.477 164.53 100.179 11.212 194.204-36.786 207.183-131.016 14.601-106.353-45.226-221.53-152.339-213.261z" />
<glyph unicode="&#xe647;" glyph-name="profile-circle" data-tags="profile-circle" d="M512 0v0c188.513 0 341.333 152.82 341.333 341.333s-152.82 341.333-341.333 341.333c-188.513 0-341.333-152.82-341.333-341.333s152.82-341.333 341.333-341.333v0 0zM512-85.334v0c-235.641 0-426.667 191.025-426.667 426.667s191.025 426.667 426.667 426.667c235.641 0 426.667-191.025 426.667-426.667s-191.025-426.667-426.667-426.667v0 0zM257.698 113.646l132.88 54.449c27.63-41.605 69.028-69.867 121.346-69.867 52.449 0 93.924 28.404 121.554 70.181l132.87-54.711c-62.498-69.785-153.295-113.698-254.348-113.698-101.028 0-191.805 43.892-254.302 113.646zM511.924 205.179c100.267 0 160.427 111.311 160.427 213.902s-40.107 178.252-160.427 178.252c-120.32 0-160.427-75.661-160.427-178.252s60.16-213.902 160.427-213.902z" />
<glyph unicode="&#xe648;" glyph-name="review-alone" data-tags="review-alone" d="M490.667 768c35.349 0 64-31.834 64-71.111s-28.651-71.111-64-71.111c-35.349 0-64 31.834-64 71.111s28.651 71.111 64 71.111v0 0zM584.405 495.739l-0.277-196.267c0-16.83 12.501-30.483 27.925-30.483 15.445 0 27.947 13.653 27.947 30.483v210.299c0 54.376-40.363 98.441-90.176 98.441h-118.315c-49.813 0-90.176-44.089-90.176-98.441l1.365-210.299c0-16.83 12.501-30.483 27.925-30.483 15.445 0 27.968 13.653 27.968 30.483v196.267c0 4.124 3.051 7.443 6.827 7.443 3.755 0 6.827-3.342 6.827-7.443l-1.365-540.8c0-22.258 16.512-40.273 36.885-40.273s36.885 18.015 36.885 40.273v314.761c0 3.721 2.752 6.732 6.144 6.732s6.144-3.010 6.144-6.732v-314.761c0-22.258 16.533-40.273 36.885-40.273 20.395 0 36.907 18.015 36.907 40.273v540.8c0 4.124 3.051 7.443 6.827 7.443 3.797 0.024 6.848-3.319 6.848-7.443v0 0z" />
<glyph unicode="&#xe649;" glyph-name="review-couple" data-tags="review-couple" d="M536.839 304.047c-11.354 0.356-21.002 7.751-25.176 18.204l-75.348 189.606c-0.763 3.366-3.613 5.879-7.046 5.879-3.994 0-7.225-3.413-7.225-7.656l0.561-2.963 82.012-302.199 0.718-4.053c0-6.187-4.735-11.188-10.591-11.188l-65.588-0.521-1.481-240.924c0-18.536-14.226-33.564-31.773-33.564s-31.773 15.004-31.773 33.564l1.885 233.719c0 5.073-3.904 9.197-8.706 9.197-4.824 0-8.729-4.124-8.729-9.197v-233.719c0-18.536-14.226-33.564-31.773-33.564s-31.773 15.004-31.773 33.564v241.446h-68.258c-5.856 0-10.591 5.001-10.591 11.188l0.292 2.584 84.077 303.929 0.494 2.726c0 4.219-3.254 7.633-7.225 7.633-3.164 0-5.834-2.11-6.821-5.073l-50.778-186.406c-3.209-12.776-14.204-22.234-27.33-22.234-15.595 0-28.228 13.345-28.228 29.819 0 4.124 0.785 8.059 2.221 11.639l52.842 181.594c5.654 41.387 46.38 82.797 89.664 82.797h84.727c43.284 0 64.353-27.33 86.882-82.797 9.806-24.178 25.961-62.886 41.062-98.844l16.582 85.262c18.759 68.575 41.713 98.465 93.209 98.465h122.289c51.474 0 93.187-44.089 93.187-98.465v-210.276c0-16.853-12.925-30.507-28.878-30.507-15.931 0-28.878 13.653-28.878 30.507l0.314 196.243c0 4.124-3.164 7.467-7.091 7.467-3.904 0-7.068-3.342-7.068-7.467v-544.521c0-22.258-17.053-40.273-38.123-40.273-21.047 0-38.123 18.015-38.123 40.273v318.507c0 3.721-2.85 6.732-6.35 6.732s-6.35-3.010-6.35-6.732v-318.507c0-22.258-17.076-40.273-38.123-40.273-21.070 0-38.123 18.015-38.123 40.273l1.414 544.521c0 4.124-3.164 7.467-7.068 7.467s-5.475-2.939-7.068-7.467l-36.238-165.001c0-16.853-12.947-30.483-28.901-30.483l-1.84 0.071zM357.96 768c36.709 0 66.463-31.431 66.463-70.187 0-38.779-29.753-70.21-66.463-70.21-36.687 0-66.44 31.431-66.44 70.21 0 38.756 29.753 70.187 66.44 70.187v0 0zM699.361 768c36.687 0 66.44-31.431 66.44-70.187 0-38.779-29.753-70.187-66.44-70.187-36.709 0-66.463 31.407-66.463 70.187 0 38.756 29.753 70.187 66.463 70.187v0 0z" />
<glyph unicode="&#xe64a;" glyph-name="review-family" data-tags="review-family" d="M656.625-16.845c6.594-4.926 10.865-12.67 10.865-21.29 0-14.801-11.827-26.761-26.494-26.761-6.547 0-12.531 2.368-17.154 6.323l-3.262 3.315-16.755 17.122-13.728 22.664-21.12 60.768h-14.831l-3.825-103.869c0-14.825-11.827-26.761-26.517-26.761-14.010 0-25.438 10.917-26.423 24.819l-0.070 261.094h-30.202l-38.837 19.893-53.199 81.987c-1.971 2.794-3.45 6.015-4.247 9.473-3.145 2.937-5.679 6.584-7.345 10.704l-53.269 189.456c-0.774 3.339-3.661 5.849-7.087 5.849-4.036 0-7.298-3.41-7.298-7.649l0.563-2.96 82.603-301.922 0.727-4.050c0-6.181-4.764-11.178-10.654-11.178l-66.059-0.521-1.502-240.704c0-18.519-14.315-33.534-32.009-33.534-17.647 0-31.985 14.991-31.985 33.534l1.877 233.504c0 5.068-3.919 9.189-8.753 9.189-4.858 0-8.777-4.121-8.777-9.189v-233.504c0-18.519-14.338-33.534-32.009-33.534s-31.985 14.991-31.985 33.534v241.225h-68.757c-5.89 0-10.654 4.997-10.654 11.178l0.282 2.581 84.691 303.651 0.469 2.723c0 4.215-3.262 7.626-7.275 7.626-3.168 0-5.867-2.108-6.876-5.068l-51.134-186.235c-3.215-12.765-14.291-22.214-27.503-22.214-15.723 0-28.442 13.333-28.442 29.792 0 4.121 0.798 8.052 2.253 11.628l53.199 181.428c5.702 41.349 46.722 82.721 90.323 82.721h85.325c43.578 0 81.781-41.372 87.484-82.721l56.343-187.159 0.54-5.897 2.441-4.665 46.534-67.138h182.571l6.313 27.471c-1.079 3.126-1.69 6.465-1.69 9.97l-1.502 210.107c0 54.303 44.399 98.351 99.194 98.351h130.146c54.795 0 99.194-44.025 99.194-98.351v-210.107c0-16.814-13.751-30.455-30.741-30.455-16.966 0-30.718 13.641-30.718 30.455l0.305 196.087c0 4.121-3.356 7.436-7.533 7.436-4.154 0-7.509-3.315-7.509-7.436v-540.305c0-22.237-18.163-40.236-40.597-40.236-22.387 0-40.574 17.998-40.574 40.236v314.473c0 3.718-3.027 6.726-6.758 6.726s-6.758-3.008-6.758-6.726v-314.473c0-22.237-18.163-40.236-40.574-40.236s-40.574 17.998-40.574 40.236l1.502 540.305c0 4.097-3.379 7.436-7.509 7.436-4.154 0-7.509-3.315-7.509-7.436v-196.087c0-2.652-0.352-5.234-0.986-7.697-0.892-5.613-3.403-10.657-7.017-14.635l-16.943-57.097-41.137-19.893h-24.077v-154.857l13.259-37.986 17.741-24.535zM230.4 768c38.884 0 70.4-31.805 70.4-71.046s-31.516-71.046-70.4-71.046c-38.884 0-70.4 31.805-70.4 71.046s31.516 71.046 70.4 71.046v0 0zM817.067 768c38.884 0 70.4-31.805 70.4-71.046s-31.516-71.046-70.4-71.046c-38.884 0-70.4 31.805-70.4 71.046s31.516 71.046 70.4 71.046v0 0zM626.423 344.802c0-37.583-30.131-67.967-67.349-67.967-37.242 0-67.349 30.384-67.349 67.967s30.108 67.967 67.349 67.967c37.218 0 67.349-30.384 67.349-67.967v0 0zM428.271 220.472l38.837-19.893c-22.27 0-38.837 19.893-38.837 19.893v0 0zM690.816 220.472l-41.137-19.893c23.561 0 41.137 19.893 41.137 19.893v0 0z" />
<glyph unicode="&#xe64b;" glyph-name="review-friends" data-tags="review-friends" d="M229.3 228.668l-137.552-243.081c0 0-19.647-40.509 9.824-60.776s39.294 0 58.964 20.267c19.647 20.267 147.398 222.838 147.398 222.838l-78.634 60.752zM386.522 137.504l29.471-192.45c0 0 0-30.388 39.294-30.388s39.294 40.509 39.294 40.509l-29.471 222.838-88.434 111.407 49.14 192.45 196.516 232.959c0 0 9.824 20.267-9.824 40.509-19.647 20.267-39.294 10.121-39.294 10.121l-186.692-202.571-235.832-50.631-49.14-162.062c0 0 0-30.388 29.471-30.388s39.294 30.388 39.294 30.388l39.294 101.286 68.787 10.121-39.294-192.45 147.421-131.65zM335.877 575.571c40.707 0 73.688 34.015 73.688 75.97s-33.003 75.97-73.688 75.97c-40.707 0-73.688-34.015-73.688-75.97s33.003-75.97 73.688-75.97v0 0zM683.643 432.78v-121.908l-107.899-132.053 39.226-203.164c0 0 9.801-30.483 39.226-20.314s19.624 40.628 19.624 40.628l-9.801 142.222 58.85-15.241 29.425-177.777c0 0 0-30.483 39.226-30.483s19.624 50.797 19.624 50.797l-19.624 162.536 78.474 30.483-58.85 152.391 9.801 142.222 58.85-10.169c0 0-9.801-81.28-9.801-91.425 0-10.169 9.801-25.387 19.624-25.387 24.525-5.073 29.425 20.314 34.325 40.628s14.724 137.149 14.724 137.149l-117.7 20.314h-117.7l-78.474-50.797-58.85 101.594c0 0-9.801 10.169-29.425 0s-9.801-40.628-9.801-40.628l78.474-142.222 78.451 40.604zM673.842 628.288c0 37.902 29.448 68.622 65.847 68.622h5.63c36.354 0 65.847-30.862 65.847-68.622v-5.001c0-37.902-29.448-68.622-65.847-68.622h-5.63c-36.354 0-65.847 30.862-65.847 68.622v5.001z" />
<glyph unicode="&#xe64c;" glyph-name="favorites-outline" data-tags="favorites-outline" d="M770.889 368.793l-258.859-259.584-258.304 259.115c-26.069 25.643-40.363 60.245-40.363 97.621 0 72.448 54.443 131.371 121.387 131.371 42.283 0 80.853-23.253 103.253-62.208l74.027-128.811 73.984 128.811c22.4 38.955 61.013 62.208 103.211 62.208 66.944 0 121.472-58.923 121.472-131.371 0-37.333-14.123-71.851-39.808-97.152zM689.225 682.649c-75.221 0-141.056-42.069-177.237-105.045-36.139 62.976-101.973 105.045-177.237 105.045-114.176 0-206.763-96.981-206.763-216.661 0-62.293 25.131-118.4 65.28-157.909l295.936-296.875c5.461-6.827 13.611-11.221 22.741-11.221 8.448 0 16.043 3.797 21.419 9.771l297.472 298.325c40.064 39.509 65.152 95.616 65.152 157.909 0 119.68-92.544 216.661-206.763 216.661z" />
<glyph unicode="&#xe800;" glyph-name="preloader" data-tags="preloader" d="M512 768c-36 0-66.333-12.333-91-37s-37-55-37-91c0-34.667 12.333-64.667 37-90s55-38 91-38c36 0 66.333 12.667 91 38s37 55.333 37 90c0 36-12.333 66.333-37 91s-55 37-91 37v0zM273.067 59.733c-9.333 0-17-3-23-9s-9-13.667-9-23c0-9.333 3-17 9-23s13.667-9 23-9c9.333 0 17 3 23 9s9 13.667 9 23c0 9.333-3 17-9 23s-13.667 9-23 9v0zM168.533 288c-17.333 0-32.333-6.333-45-19s-19-27.667-19-45c0-17.333 6.333-32.333 19-45s27.667-19 45-19c17.333 0 32.333 6.333 45 19s19 27.667 19 45c0 17.333-6.333 32.333-19 45s-27.667 19-45 19v0zM215.467 394c26.667 0 49.333 9.333 68 28s28 41.333 28 68c0 26.667-9.333 49.333-28 68s-41.333 28-68 28c-26.667 0-49.333-9.333-68-28s-28-41.333-28-68c0-26.667 9.333-49.333 28-68s41.333-28 68-28v0z" />
<glyph unicode="&#xe801;" glyph-name="invoice" data-tags="invoice" d="M128 682.948v-683.23c0-23.401 18.976-42.385 42.385-42.385h683.23c23.401 0 42.385 18.976 42.385 42.385v683.23c0 23.401-18.976 42.385-42.385 42.385h-683.23c-23.401 0-42.385-18.976-42.385-42.385zM256 213.333h554.667v-42.667h-554.667v42.667zM256 128h384v-42.667h-384v42.667zM554.667 512h256v-42.667h-256v42.667zM554.667 426.666h170.667v-42.667h-170.667v42.667zM554.667 597.333h128v-42.667h-128v42.667zM320.67 583.538c-12.669-11.173-21.127-28.064-25.374-43.094h96.826v-33.185h-100.011l-0.425-14.099v-10.973l0.425-7.781h86.633v-33.518h-83.024c9.060-38.506 34.823-59.255 77.291-59.255 20.243 0 40.981 4.123 62.215 12.37v-40.501c-18.544-8.113-40.132-12.17-64.763-12.17-34.116 0-61.825 8.778-83.13 26.335s-35.212 42.961-41.724 73.22h-32.275v33.518h28.878l-0.425 7.382v7.382l0.425 18.089h-28.878v33.185h31.85c5.379 25.803 18.898 52.006 40.556 71.026s49.616 28.53 83.873 28.53c28.312 0 53.65-5.852 76.017-17.557l-17.836-37.308c-21.8 10.109-41.193 15.163-58.18 15.163-19.96 0-36.274-5.586-48.944-16.759z" />
<glyph unicode="&#xe802;" glyph-name="sepa" data-tags="sepa" horiz-adv-x="2560" d="M2251.869 146.091h-228.921l-30.76-110.087h-177.139l191.149 637.014h258.273l193.481-637.014h-173.414l-32.668 110.087zM2217.868 270.191l-80.225 276.135-77.847-276.135h158.071zM1345.411 36.005v637.014h318.575c43.698 0 77.035-3.564 99.95-10.722 52.395-16.455 87.547-50.168 105.561-101.094 9.287-26.737 13.946-66.986 13.946-120.733 0-64.62-5.158-111.042-15.368-139.326-20.435-55.9-62.484-88.112-125.996-96.453-7.472-1.259-39.251-2.366-95.352-3.276l-28.376-0.94h-101.946v-164.471h-170.995zM1516.406 348.248h106.59c33.806 1.213 54.361 3.822 61.758 7.901 10.104 5.566 16.895 16.728 20.268 33.455 2.163 11.132 3.237 27.692 3.237 49.682 0 26.949-2.148 46.922-6.459 59.965-6.141 18.275-20.873 29.391-44.197 33.44-4.628 0.607-15.67 0.94-33.17 0.94h-108.027v-185.384zM1106.51 574.204c65.666 0 126.485-29.956 167.244-80.636l9.689-12.047 46.216 100.167-4.993 4.77c-61.116 58.393-142.468 91.625-229.084 91.625-135.794 0-256.175-81.987-305.963-204.568l8.887 6.001h-77.953l-51.316-111.199h107.428v9.647l-9.566 0.788c-0.78-9.562-1.181-18.144-1.181-26.549 0-10.708 0.545-21.445 1.62-32.195l9.55 10.612h-52.562l-51.294-111.229h127.481l-8.815 5.831c51.237-119.549 170.103-198.867 303.685-198.867 67.058 0 131.128 19.858 185.418 56.424l4.255 2.866v143.532l-16.828-19.37c-40.775-46.933-99.164-74.316-161.917-74.316-73.45 0-140.601 37.593-180.349 98.819l-8.039-14.919h241.584l51.313 111.229h-327.539l9.497-8.245c-1.576 10.78-2.377 21.614-2.377 32.486 0 7.395 0.369 14.775 1.101 22.144l-9.551 0.958v-9.647h346.252l51.297 111.199h-368.152l8.317-14.464c38.433 67.043 108.941 109.151 186.646 109.151v19.295c-84.66 0-161.463-45.868-203.279-118.813l-8.292-14.464h369.73l-8.708 13.706-42.396-91.904 8.708 5.589h-348.811l-0.863-8.689c-0.795-8.002-1.196-16.022-1.196-24.060 0-11.819 0.87-23.59 2.581-35.292l1.205-8.245h320.8l-8.708 13.706-42.411-91.934 8.708 5.589h-253.179l9.686-14.919c43.246-66.616 116.403-107.57 196.426-107.57 68.367 0 132.002 29.843 176.377 80.92l-16.828 6.346v-112.668l4.255 8.014c-51.15-34.451-111.506-53.158-174.731-53.158-125.885 0-237.839 74.705-286.054 187.205l-2.499 5.831h-118.769l8.709-13.705 42.396 91.934-8.709-5.59h57.043l-1.061 10.612c-1.011 10.115-1.524 20.209-1.524 30.266 0 7.835 0.377 15.902 1.117 24.972l0.851 10.436h-102.813l8.707-13.707 42.411 91.904-8.707-5.588h78.273l2.437 6.001c46.851 115.35 160.226 192.566 288.19 192.566 81.651 0 158.281-31.303 215.858-86.315l-2.095 11.051-36.834-79.833 16.172 2.006c-44.36 55.156-110.637 87.801-182.174 87.801v-19.295zM646.667 467.538h-159.731c0 26.315-3.083 43.97-9.219 52.965-9.508 13.295-35.737 19.957-78.673 19.957-41.706 0-69.348-3.827-82.835-11.496-13.487-7.699-20.245-24.424-20.245-50.175 0-23.311 5.984-38.679 17.967-46.028 8.581-5.229 19.927-8.294 34.051-9.209l32.214-2.287c69.044-4.589 112.163-7.837 129.355-9.681 54.601-5.519 94.18-20.094 118.739-43.711 19.319-18.433 30.847-42.521 34.522-72.251 2.157-17.792 3.22-37.932 3.22-60.298 0-51.562-4.906-89.312-14.702-113.233-17.785-43.909-57.744-71.642-119.909-83.29-26.047-4.925-65.885-7.379-119.483-7.379-89.457 0-151.788 5.336-186.994 16.085-43.194 13.157-71.687 39.823-85.462 79.966-7.685 22.351-11.482 59.582-11.482 111.693h159.731c0-5.809 0.015-10.261 0.015-13.325 0-27.809 7.958-45.677 23.86-53.651 11.011-5.489 24.301-8.37 39.929-8.721h58.732c29.966 0 49.087 1.54 57.334 4.635 14.687 5.794 24.331 15.124 28.933 28.038 2.445 7.958 3.66 18.234 3.66 30.828 0 28.19-10.252 45.342-30.725 51.501-7.67 2.424-43.27 5.824-106.847 10.108-51.062 3.659-86.526 7.181-106.376 10.596-52.292 9.819-87.148 30.020-104.538 60.68-15.294 26.040-22.934 65.452-22.934 118.188 0 40.143 4.131 72.343 12.393 96.554 8.262 24.226 21.582 42.613 39.959 55.191 26.928 19.317 61.39 30.645 103.323 34.029 34.902 3.064 73.616 4.62 116.203 4.62 67.039 0 114.821-3.873 143.298-11.541 69.515-18.753 104.265-71.26 104.265-157.554 0-7.074-0.516-17.655-1.549-31.803z" />
<glyph unicode="&#xe803;" glyph-name="visa" data-tags="visa" horiz-adv-x="2389" d="M2072.471 668.097h-135.729c-42.040 0-73.506-11.656-91.974-54.185l-260.841-598.475h184.427c0 0 30.161 80.459 36.984 98.122 20.161 0 199.319-0.28 224.931-0.28 5.262-22.855 21.372-97.856 21.372-97.856l162.986 0.014-142.157 652.66zM1855.882 247.151c14.528 37.632 69.976 182.546 69.976 182.546-1.029-1.727 14.416 37.813 23.289 62.331l11.886-56.288c0 0 33.618-155.907 40.648-188.599l-145.799 0.011zM1622.078 652.618c-34.797 13.256-89.325 27.426-157.422 27.426-173.542 0.018-295.8-88.572-296.835-215.518-0.976-93.835 87.275-146.187 153.899-177.425 68.366-31.986 91.348-52.419 91.022-81.009-0.43-43.752-54.595-63.771-105.078-63.771-70.298 0.007-107.646 9.894-165.326 34.277l-22.631 10.397-24.65-146.197c41.029-18.238 116.883-34.036 195.645-34.859 184.627 0.011 304.48 87.562 305.843 223.117 0.665 74.303-46.131 130.829-147.457 177.439-61.39 30.227-98.993 50.37-98.594 80.959 0.003 27.153 31.823 56.175 100.581 56.175 57.443 0.926 99.038-11.787 131.453-25.018l15.745-7.521 23.806 141.527zM809.495 15.635l109.815 653.083h175.639l-109.887-653.083h-175.568zM471.913 313.38l18.324-90.494 171.951 445.352h186.044l-276.511-651.817-185.83-0.223-156.157 567.22c-53.988 30.336-115.589 54.721-184.478 71.618l2.243 13.596 283.217 0.001c38.139-1.454 68.979-13.791 79.609-55.143l61.589-300.11z" />
<glyph unicode="&#xe804;" glyph-name="mastercard" data-tags="mastercard" horiz-adv-x="1621" d="M802.426 13.344v0c-75.666-69.126-175.957-111.258-285.932-111.258-235.432 0-426.506 192.991-426.506 430.779 0 236.864 189.597 429.281 423.757 430.784 0.919 0.005 1.829 0 2.749 0 109.981 0 210.286-42.128 285.953-111.244 75.645 69.177 175.974 111.326 286.053 111.356 235.561 0.063 426.554-192.757 426.617-430.677v-0.219c0.067-237.919-190.839-430.827-426.395-430.891-110.173-0.027-210.596 42.135-286.295 111.37zM1427.606 439.008l-9.796-61.39c0 0-17.093 23.847-43.852 23.847-41.608 0-76.29-50.67-76.29-108.891 0-37.582 18.499-74.406 56.314-74.406 27.201 0 42.282 19.156 42.282 19.156l-1.998-16.36h44.169l34.691 218.117-45.522-0.073zM1406.518 319.31c0-24.227-11.875-56.587-36.496-56.587-16.342 0-24 13.856-24 35.603 0 35.56 15.813 59.023 35.765 59.023 16.347 0.005 24.732-11.338 24.732-38.039zM1255.139 220.474c13.223 75.923 15.673 137.571 47.207 126.286 5.531 29.385 10.864 40.752 16.886 53.189 0 0-2.826 0.598-8.756 0.598-20.337 0-35.404-28.063-35.404-28.063l4.048 25.773h-42.282l-28.328-177.783h46.629zM420.102 402.666c-31.139 0-55.009-10.108-55.009-10.108l-6.59-39.512c0 0 19.702 8.085 49.483 8.085 16.91 0 29.281-1.92 29.281-15.801 0-8.43-1.516-11.542-1.516-11.542s-13.338 1.128-19.514 1.128c-39.274 0-80.531-16.929-80.531-67.969 0-40.217 27.067-49.445 43.842-49.445 32.039 0 45.849 20.998 46.586 21.062l-1.497-17.527h39.986l17.839 126.316c0 53.587-46.282 55.313-62.36 55.313zM429.831 299.819c0.866-7.716-4.789-43.883-32.131-43.883-14.104 0-17.772 10.881-17.772 17.318 0 12.553 6.753 27.625 40.030 27.625 7.74-0.010 8.568-0.846 9.873-1.060zM1051.45 223.206l8.125 50.004c0 0-22.282-11.284-37.575-11.284-32.212 0-45.132 24.844-45.132 51.536 0 54.146 27.717 83.935 58.571 83.935 23.139 0 41.71-13.122 41.71-13.122l7.413 48.584c0 0-27.538 11.255-51.144 11.255-52.425 0-103.424-45.935-103.424-132.203 0-57.204 27.538-94.986 81.73-94.986 15.322-0.005 39.726 6.282 39.726 6.282zM873.882 220.474c13.218 75.923 15.668 137.571 47.211 126.286 5.521 29.385 10.85 40.752 16.876 53.189 0 0-2.826 0.598-8.756 0.598-20.337 0-35.404-28.063-35.404-28.063l4.048 25.773h-42.282l-28.328-177.783h46.634zM684.252 297.519c0-64.818 42.359-80.22 78.447-80.22 33.31 0 47.967 7.521 47.967 7.521l8 44.238c0 0-25.339-11.275-48.222-11.275-48.761 0-40.222 36.722-40.222 36.722h92.286c0 0 5.959 29.72 5.959 41.831 0 30.221-14.893 67.045-64.752 67.045-45.661-0.010-79.462-49.703-79.462-105.862zM763.887 362.303c25.627 0 20.901-29.088 20.901-31.442h-50.417c0 3.005 4.765 31.442 29.517 31.442zM669.864 223.186l5.685 38.987c-3.105 0-7.673-1.342-11.702-1.342-15.808 0-17.55 8.489-16.544 14.765l12.77 79.549h24.025l5.8 43.125h-22.653l4.611 26.818h-45.411c-1.001-1.011-26.807-150.829-26.807-169.071 0-27.008 15.014-39.036 36.184-38.841 16.578 0.141 29.488 4.774 34.042 6.009zM524.961 218.427c10.229 0 68.704-2.625 68.704 58.318 0 56.976-54.129 45.721-54.129 68.61 0 11.396 8.823 14.984 24.949 14.984 6.402 0 31.033-2.057 31.033-2.057l5.728 40.499c0-0.005-15.943 3.603-41.897 3.603-33.594 0-67.693-13.545-67.693-59.888 0-52.513 56.858-47.243 56.858-69.364 0-14.765-15.885-15.966-28.126-15.966-21.185 0-40.261 7.341-40.328 6.991l-6.055-40.091c1.097-0.34 12.862-5.64 50.956-5.64zM1156.232 402.666c-31.139 0-55.009-10.108-55.009-10.108l-6.585-39.512c0 0 19.702 8.085 49.483 8.085 16.91 0 29.271-1.92 29.271-15.801 0-8.43-1.507-11.542-1.507-11.542s-13.338 1.128-19.519 1.128c-39.269 0-80.526-16.929-80.526-67.969 0-40.217 27.062-49.445 43.837-49.445 32.039 0 45.849 20.998 46.581 21.062l-1.487-17.527h39.986l17.834 126.316c0.005 53.587-46.282 55.313-62.36 55.313zM1165.975 299.819c0.866-7.716-4.794-43.883-32.145-43.883-14.104 0-17.762 10.881-17.762 17.318 0 12.553 6.753 27.625 40.025 27.625 7.74-0.010 8.563-0.846 9.882-1.060zM174.221 220.775l27.644 164.671 4.058-164.671h31.288l58.364 164.671-25.854-164.671h46.489l35.803 218.409h-71.891l-44.771-134.007-2.33 134.007h-66.268l-36.318-218.409h43.784z" />
<glyph unicode="&#xe805;" glyph-name="filter" data-tags="filter" d="M595.664 318.552l266.741 285.977c62.231 66.718 38.46 120.804-52.883 120.804h-594.941c-91.437 0-115.128-54.071-52.883-120.804l266.721-285.956c-0.365-2.192-0.555-4.442-0.555-6.736v-331.33c0-22.328 14.894-30.201 33.266-16.659l101.844 75.067c18.323 13.506 33.266 43.095 33.266 66.009v206.601c0 2.402-0.197 4.749-0.575 7.026z" />
<glyph unicode="&#xe80f;" glyph-name="diners-club" data-tags="diners-club" horiz-adv-x="1451" d="M958.954 809.369h-392.38c-154.614 0-303.064-145.266-303.338-306.528 0.274-165.203 148.724-305.462 303.429-305.415h392.243c158.906 0.232 277.767 140.212 277.767 305.23 0 164.369-113.335 306.714-277.721 306.714zM859.683 503.258c0.046-153.844-144.066-297.209-293.109-297.162-151.555 0.556-294.479 143.968-294.525 296.559 0.046 150.923 142.97 298.646 294.525 298.785 149.043-0.139 293.155-143.736 293.109-298.182zM745.709 503.443c0.091 86.844-60.275 156.95-121.235 173.642v-346.774c60.96 12.287 121.326 87.725 121.235 173.132zM386.434 503.629c-0.046-86.844 60.32-156.95 121.235-173.689v346.821c-60.914-12.287-121.28-87.725-121.235-173.132zM1292.959 75.951c0.594 2.689 0.868 4.776 0.868 6.538 0 8.995-7.397 9.876-17.763 11.963l0.868 5.1c14.247 0.881 30.548 2.689 40.64 5.981 1.781 0.556 3.516 1.484 4.749 1.484 1.461 0 2.648-0.603 2.648-3.014 0-1.484-1.507-6.259-1.781-8.021l-24.886-91.991h0.274c13.060 17.897 26.667 28.376 49.224 28.376 26.347 0 40.594-19.428 40.594-44.512 0-50.168-48.037-97.369-97.49-97.369-18.402 0-39.453 5.379-39.453 16.738 0 1.762 0.913 5.054 2.1 9.505l39.407 159.222zM1274.557-87.444c-0.274-1.484-0.868-3.57-0.868-5.054 0-7.79 18.95-9.551 22.512-9.551 36.759 0 65.48 49.89 65.48 85.731 0 18.176-6.484 35.238-26.941 35.238-18.082 0-39.133-20.633-45.069-44.836l-15.114-61.528zM1218.574-75.157c-0.868-3.617-1.781-8.114-1.781-10.757 0-3.014 1.461-7.187 6.21-7.187 7.397 0 18.356 13.446 25.799 22.998l4.429-4.173c-11.279-15.255-27.261-35.238-47.398-35.238-10.411 0-14.247 8.949-14.247 15.811 0 3.292 0.913 8.068 2.1 12.565l12.146 42.101h-0.594c-13.653-23.276-45.982-70.477-76.165-70.477-12.466 0-18.996 8.346-18.996 20.308 0 4.173 0.594 10.757 2.694 19.103l18.356 69.318c0.913 3.57 2.968 9.83 2.968 12.241 0 5.657-3.562 7.743-20.137 8.068l1.461 5.054c26.073 2.411 43.243 7.79 45.937 7.79 2.1 0 3.242-0.603 3.242-2.086 0-1.53-2.329-9.273-3.242-12.287l-23.425-88.699c-0.594-2.365-2.648-10.154-2.648-13.724 0-3.014 1.187-8.671 8.585-8.671 26.667 0 67.581 67.185 79.453 122.454h23.699l-28.448-104.51zM1104.6-75.157c-10.639-13.168-26.941-34.358-45.617-34.358-9.772 0-14.247 5.657-14.247 15.533 0 4.776 0.32 10.711 3.288 20.587l37.946 139.517c1.781 6.538 3.836 16.97 3.836 19.984 0 5.981-1.781 7.743-18.95 8.346l0.868 5.1c12.786 0.603 25.206 2.689 32.603 4.451 5.662 1.53 10.685 3.014 13.379 3.014 2.329 0 3.196-1.484 3.196-3.617 0-0.881-0.868-3.848-2.055-8.068l-45.937-164.508c-1.781-5.981-2.968-9.598-2.968-15.579 0-6.259 2.648-8.346 6.53-8.346 6.256 0 19.863 17.341 23.425 22.117l4.703-4.173zM1047.978 37.56h-4.84v6.955c0 26.893-11.781 43.074-45.389 43.074-54.841 0-94.476-68.854-94.476-118.327 0-36.166 18.402-66.814 58.311-66.814 28.402 0 51.645 15.023 70.321 35.285l5.48-4.312c-22.42-27.217-49.955-44.002-85.572-44.002-47.946 0-81.554 32.086-81.554 80.724 0 67.973 62.604 126.998 129.226 126.998 11.735 0 20.914-1.994 28.128-4.312 7.169-2.040 12.329-4.034 15.799-4.034 6.575 0 8.904 1.391 11.461 6.909h4.886l-11.781-58.143zM810.166-12.47h-5.069c-0.594 17.016-8.585 37.325-28.448 37.325-10.091 0-18.63-5.332-18.63-16.692s10.046-22.395 19.818-34.636c9.772-11.963 19.589-25.131 19.589-40.942 0-27.773-22.831-42.101-46.256-42.101-15.114 0-30.229 5.657-32.923 5.657-2.648 0-5.023-2.689-5.297-5.657h-5.023l5.617 48.963h5.023c1.781-19.103 8.037-41.498 31.096-41.498 16.621 0 24.019 10.432 24.019 23.276 0 13.771-5.343 20.308-18.676 37.371-9.452 12.241-20.731 25.084-20.731 40.617 0 20.587 19.863 33.152 38.813 33.152 6.53 0 12.74-1.53 17.808-3.014 5.297-1.762 9.452-3.246 12.146-3.246 3.242 0 6.804 1.762 7.717 5.008 0 0.325 0.274 0.927 0.868 1.252h5.023l-6.484-44.836zM649.845-10.661c1.461 5.657 2.968 12.519 2.968 18.222 0 11.963-8.585 11.963-18.996 11.963l1.507 5.054c14.247 1.206 28.174 3.895 42.055 6.862 1.507 0.325 3.014 0.927 3.881 0.927 1.461 0 1.781-1.252 1.781-2.689 0-2.086-2.648-13.168-3.562-16.46l-12.466-42.379h0.594c11.279 20.308 34.978 61.528 54.247 61.528 6.804 0 10.091-5.703 10.091-11.963 0-11.36-5.069-21.189-13.973-21.189-5.617 0-10.365 5.981-13.881 9.83-26.987-25.687-43.882-67.509-53.38-103.026l-3.562-12.565h-23.379l26.073 95.886zM616.374-76.084c-15.662-18.5-37.626-33.43-62.786-33.43-29.361 0-41.507 20.911-41.507 47.804 0 42.982 42.969 94.077 86.851 94.077 14.795 0 28.722-4.498 28.722-21.839 0-36.722-58.677-52.255-87.125-55.825-1.507-6.306-1.781-13.168-1.781-20.030 0-18.222 8.311-30.741 27.261-30.741 18.082 0 33.79 12.519 46.256 24.157l4.11-4.173zM541.989-37.832c26.393 3.246 61.964 20.030 61.964 51.049 0 8.068-4.155 11.638-11.553 11.638-23.699 0-46.85-42.101-50.412-62.687v0zM393.266 1.858c0.868 2.689 1.507 5.379 1.507 7.79 0 9.551-7.443 9.876-19.909 9.876l1.507 5.054c13.014 1.206 23.699 3.014 31.416 4.776 7.991 1.762 13.060 3.014 14.201 3.014 2.1 0 3.288-0.603 3.288-2.086 0-1.206-2.055-6.306-2.968-9.598l-13.927-50.168 0.594-0.603c7.717 12.287 18.95 27.495 32.284 39.411 14.247 12.565 30.229 23.044 43.288 23.044 13.014 0 18.082-5.703 18.082-18.547 0-7.743-7.397-33.755-9.498-41.22l-13.060-47.757c-1.461-5.379-1.735-8.114-1.735-10.757 0-3.292 1.461-7.187 5.023-7.187 7.123 0 17.169 14.652 24.019 25.687l4.749-4.498c-10.411-16.089-24.612-37.603-44.795-37.603-10.32 0-14.201 8.949-14.201 15.811 0 3.292 0.868 8.068 2.055 12.565l15.708 58.236c1.507 5.379 6.804 25.362 6.804 30.741 0 5.703-5.297 8.068-7.991 8.068-14.795 0-41.462-27.449-57.215-55.547-6.484-11.638-15.662-31.065-24.841-66.907h-25.845l31.462 108.405zM368.060-74.276c-11.827-15.255-27.854-35.238-47.992-35.238-10.365 0-13.927 8.949-13.927 15.811 0 3.292 0.594 8.068 1.781 12.565l23.425 84.201c1.187 3.895 2.055 6.259 2.055 8.392 0 5.054-3.562 8.068-19.544 8.068l1.461 5.054c25.48 2.411 42.695 7.79 45.389 7.79 2.055 0 3.196-0.603 3.196-2.086 0-0.927-1.142-4.498-1.461-5.703l-29.361-99.734c-0.274-1.53-1.735-7.79-1.735-10.757 0-4.498 1.461-7.187 5.89-7.187 7.397 0 18.996 13.446 26.393 22.998l4.429-4.173zM374.635 73.169c0-8.346-7.123-15.811-15.48-15.811-8.265 0-15.069 7.187-15.069 15.533s7.397 15.208 15.388 15.208c8.037 0 15.16-6.538 15.16-14.93v0zM86.823-101.632c22.968 1.159 25.571 15.95 27.854 24.064l39.042 141.742c1.142 4.080 2.009 7.511 2.009 10.711 0 8.392-6.027 13.307-27.261 13.307l1.416 4.915h87.901c41.873 0 85.526-25.455 85.526-81.883 0-59.905-53.973-117.771-126.897-117.771h-91.006l1.416 4.915zM143.993-77.893c-0.868-2.875-1.187-5.193-1.187-7.233 0-8.995 6.347-11.87 19.27-11.87h11.461c62.284 0 96.759 54.11 96.759 112.856 0 42.796-19.544 67.695-63.426 67.695-17.808 0-20.411-5.796-25.845-26.012l-37.032-135.436z" />
<glyph unicode="&#xe81b;" glyph-name="american-express" data-tags="american-express" d="M981.333 810.666v-597.333c-1.83 4.658 0-1.296 0 0 0-19.309-1.83-26.179 0-42.667v-298.667h-938.667v938.667h938.667zM126.923 400.902l-17.982 43.944-17.879-43.944h35.861zM523.059 418.4v0c3.408 1.785 5.414 5.662 5.414 10.48 0 4.721-2.108 8.139-5.517 9.745-3.103 1.782-7.88 1.988-12.459 1.988h-32.35v-24.484h31.916c5.115 0 9.385 0.073 12.996 2.271zM750.741 400.902l-18.181 43.944-18.081-43.944h36.262zM326.327 353.338h-26.933l-0.099 86.331-38.095-86.331h-23.067l-38.195 86.408v-86.408h-53.435l-10.095 24.587h-54.701l-10.198-24.587h-28.534l47.046 110.23h39.033l44.683-104.365v104.365h42.879l34.382-74.778 31.584 74.778h43.741v-110.23h0.003zM433.67 353.338v22.798h-61.491v22.013h60.015v22.595h-60.015v19.869h61.491v22.954h-87.764v-110.23h87.764zM557.414 433.881c0-17.575-11.696-26.655-18.512-29.381 5.749-2.194 10.658-6.071 12.996-9.283 3.71-5.483 4.35-10.38 4.35-20.225v-21.654h-26.499l-0.099 13.901c0 6.633 0.633 16.172-4.147 21.475-3.839 3.877-9.69 4.718-19.149 4.718h-28.203v-40.093h-26.27v110.23h60.427c13.427 0 23.319-0.356 31.813-5.28 8.311-4.924 13.294-12.112 13.294-24.407v0zM599.458 353.338v110.23h-26.807v-110.23h26.807zM910.452 353.338h-37.23l-49.798 82.734v-82.734h-53.504l-10.224 24.587h-54.575l-9.919-24.587h-30.742c-12.77 0-28.939 2.833-38.095 12.192-9.233 9.359-14.037 22.037-14.037 42.082 0 16.348 2.871 31.293 14.163 43.102 8.494 8.797 21.794 12.854 39.899 12.854h25.434v-23.619h-24.901c-9.588 0-15.001-1.43-20.216-6.53-4.479-4.641-7.552-13.415-7.552-24.969 0-11.81 2.341-20.324 7.224-25.887 4.045-4.362 11.394-5.685 18.31-5.685h11.799l37.028 86.687h39.365l44.48-104.262v104.262h40.001l46.181-76.769v76.769h26.91v-110.226zM87.558 331.687l10.121 24.484h22.66l10.095-24.484h88.321v18.718l7.884-18.798h45.849l7.884 19.078v-18.998h219.494l-0.103 40.19h4.247c2.974-0.103 3.842-0.379 3.842-5.303v-34.887h113.523v9.356c9.157-4.921 23.399-9.356 42.14-9.356h47.759l10.221 24.484h22.66l9.995-24.484h92.034v23.257l13.937-23.257h73.75v153.738h-72.988v-18.157l-10.221 18.157h-74.894v-18.157l-9.385 18.157h-101.164c-16.934 0-31.819-2.371-43.844-8.977v8.977h-69.812v-8.977c-7.652 6.809-18.078 8.977-29.671 8.977h-255.050l-17.113-39.708-17.574 39.708h-80.334v-18.157l-8.825 18.157h-68.512l-31.816-73.095v-80.642h44.891zM981.049 299.783h-48.675c-14.689 0-25.359-3.522-32.917-8.997v8.997h-71.996c-11.513 0-25.028-2.857-31.42-8.997v8.997h-128.566v-8.997c-10.232 7.389-27.497 8.997-35.465 8.997h-84.804v-8.997c-8.095 7.848-26.096 8.997-37.068 8.997h-94.91l-21.719-23.53-20.341 23.53h-141.776v-153.741h139.107l22.379 23.902 21.081-23.902 85.746-0.076v36.166h8.43c11.377-0.176 24.795 0.282 36.634 5.406v-41.492h70.725v40.070h3.412c4.354 0 4.782-0.179 4.782-4.535v-35.531h214.85c13.641 0 27.898 3.495 35.794 9.838v-9.838h68.15c14.182 0 28.031 1.99 38.569 7.087l-0.003 146.647zM876.139 225.793c5.121-5.306 7.866-12.004 7.866-23.344 0-23.703-14.792-34.767-41.317-34.767h-51.227v23.627h51.021c4.988 0 8.526 0.661 10.743 2.728 1.809 1.704 3.106 4.18 3.106 7.187 0 3.21-1.404 5.758-3.209 7.286-2.011 1.681-4.786 2.445-9.366 2.445-24.596 0.841-55.399-0.764-55.399 34.103 0 15.981 10.030 32.804 37.603 32.804h52.727v-23.451h-48.246c-4.782 0-7.892-0.179-10.537-1.99-2.881-1.784-3.949-4.432-3.949-7.928 0-4.157 2.446-6.984 5.755-8.207 2.775-0.967 5.755-1.249 10.235-1.249l14.158-0.382c14.278-0.349 24.078-2.821 30.036-8.861zM973.066 225.793c5.121-5.306 7.866-12.004 7.866-23.344 0-23.703-14.792-34.767-41.317-34.767h-51.227v23.627h51.021c4.988 0 8.526 0.661 10.743 2.728 1.809 1.704 3.106 4.18 3.106 7.187 0 3.21-1.404 5.758-3.209 7.286-2.011 1.681-4.786 2.445-9.366 2.445-24.596 0.841-55.399-0.764-55.399 34.103 0 15.981 10.030 32.804 37.603 32.804h52.727v-23.451h-48.246c-4.782 0-7.892-0.179-10.537-1.99-2.881-1.784-3.949-4.432-3.949-7.928 0-4.157 2.446-6.984 5.755-8.207 2.775-0.967 5.755-1.249 10.235-1.249l14.158-0.382c14.278-0.349 24.078-2.821 30.036-8.861zM654.698 218.885c6.923 2.751 18.639 11.725 18.642 29.312 0 12.569-5.221 19.447-13.521 24.467-8.632 4.612-18.33 5.2-31.645 5.2h-60.722v-110.182h26.428v40.243h28.108c9.595 0 15.453-0.944 19.296-4.891 4.889-5.123 4.251-14.938 4.251-21.567v-13.785h26.405v21.842c-0.106 9.712-0.644 14.732-4.358 20.111-2.244 3.21-7.029 7.087-12.884 9.25zM638.813 232.597c-3.518-2.090-7.869-2.269-12.987-2.269h-31.951v24.746h32.386c4.683 0 9.369-0.1 12.552-1.99 3.408-1.784 5.446-5.196 5.446-9.911s-2.038-8.512-5.446-10.576zM687.923 277.864h87.781v-22.786h-61.588v-20.032h60.085v-22.48h-60.085v-21.922l61.588-0.1v-22.862h-87.781v110.182zM555.102 241.565c0 30.514-23.451 36.299-44.324 36.299h-84.040l-33.454-36.116-32.359 36.116h-105.782v-110.182h104.179l33.657 36.475 32.386-36.475h51.121v36.957h32.817c22.99 0 45.8 6.319 45.8 36.927zM510.473 227.016h-33.989v28.059h34.294c9.495 0 16.087-3.874 16.087-13.509 0-9.529-6.286-14.549-16.392-14.549zM450.288 177.702l-40.381 44.881 40.381 43.456v-88.337zM346.006 190.644h-64.665v21.922h57.742v22.48h-57.742v20.032h65.939l28.768-32.109-30.042-32.325z" />
<glyph unicode="&#xe900;" glyph-name="waiting-time" data-tags="waiting-time" d="M477.091 699.077h-52.678c-9.466 0-17.141 7.376-17.141 17.392v34.139c0 9.605 7.955 17.392 17.141 17.392h175.173c9.466 0 17.141-7.376 17.141-17.392v-34.139c0-9.605-7.955-17.392-17.141-17.392h-52.678v-39.266c195.718-17.147 349.091-177.066 349.091-371.811 0-206.186-171.923-373.333-384-373.333s-384 167.147-384 373.333c0 194.746 153.373 354.664 349.091 371.811v39.266zM512-10.667c169.662 0 307.2 133.718 307.2 298.667s-137.538 298.667-307.2 298.667c-169.662 0-307.2-133.718-307.2-298.667s137.538-298.667 307.2-298.667zM742.4 288c0-123.712-103.154-224-230.4-224s-230.4 100.288-230.4 224c0 123.712 103.154 224 230.4 224v-224h230.4z" />
<glyph unicode="&#xe901;" glyph-name="pending" data-tags="pending" d="M582.785 351.135l92.943-60.358c13.614-8.841 17.483-27.044 8.642-40.658s-27.044-17.483-40.658-8.642l-103.749 67.376c-2.772 1.426-5.287 3.281-7.46 5.475-7.193 6.917-10.283 16.974-8.501 26.554v131.283c0 16.233 13.159 29.392 29.392 29.392s29.392-13.159 29.392-29.392v-121.030zM322.342 413.16l-3.537-13.287h69.838c8.408 0 16.472-3.34 22.417-9.286 12.381-12.381 12.381-32.454 0-44.835l-114.469-132.164c-12.381-12.381-32.454-12.381-44.835 0l-114.469 132.164c-5.945 5.945-9.286 14.009-9.286 22.417 0 17.509 14.194 31.703 31.703 31.703h63.901l1.443 8.871c8.093 49.758 26.201 94.886 54.359 135.496 29.695 42.828 67.612 76.49 113.86 101.081 39.615 21.064 81.646 33.184 126.185 36.391 44.675 3.216 87.231-1.71 127.743-14.769 40.534-13.066 78.478-34.097 113.88-63.15 35.327-28.991 63.851-63.925 85.621-104.868s34.781-84.126 39.061-129.624c4.29-45.596 0.507-88.814-11.327-129.724-11.828-40.888-31.541-78.924-59.189-114.163-27.564-35.132-61.116-63.199-100.732-84.263-46.249-24.591-95.359-37.202-147.47-37.871-52.13-0.669-102.177 10.746-150.273 34.29-12.148 5.97-20.419 15.075-25.182 27.726-4.705 12.498-4.261 24.291 1.325 36.064 5.363 12.116 13.786 19.96 25.897 24.278 12.188 4.346 23.91 3.706 35.812-1.978 34.913-16.858 71.153-25.081 108.561-24.601 37.44 0.481 72.837 9.572 106.058 27.235 28.573 15.192 52.833 35.46 72.707 60.745 19.795 25.184 33.996 52.601 42.557 82.196 8.555 29.573 11.281 60.641 8.196 93.138-3.093 32.586-12.454 63.585-28.054 92.924s-36.065 54.434-61.35 75.22c-25.216 20.729-52.497 35.842-81.798 45.287-29.322 9.452-59.994 13.010-91.941 10.682-32.075-2.337-62.444-11.116-91.017-26.309-33.22-17.664-60.551-41.926-81.886-72.696-15.713-22.663-27.157-47.454-34.31-74.322z" />
<glyph unicode="&#xe902;" glyph-name="travel-city" data-tags="travel-city" d="M308.775 0c-4.407 0-11.79 0-17.581 5.988-3.922 4.074-7.499 8.935-7.349 16.99l7.187 351.431-116.701-37.503c-12.528-4.039-26.88 3.041-31.667 15.57l-55.582 145.762c-4.557 11.941 0.058 25.855 10.729 32.36l238.178 146.455c0.473 0.282 0.934 0.622 1.419 0.963 2.63 1.855 6.622 4.65 11.825 4.65h72.529c10.579 0 20.592-7.89 24.33-19.198 10.833-32.642 41.9-56.337 73.867-56.337 32.578 0 62.942 22.979 73.855 55.891 3.149 9.464 12.102 19.644 24.342 19.644h56.632c5.214 0 9.194-2.795 11.825-4.65 0.485-0.329 0.946-0.669 1.396-0.951l238.259-147.43c11.029-6.752 15.436-20.924 10.21-32.936l-63.53-145.481c-4.095-9.358-13.29-15.405-23.43-15.405-2.757 0-5.503 0.446-8.122 1.327l-116.367 39.711 7.129-349.881c0.15-0.787 0.219-1.303 0.219-2.689 0-14.055-10.798-24.27-25.68-24.27l-397.921-0.012zM599.952 471.314c-18.057 0-34.107-9.189-42.133-24.505-9.028 14.294-24.076 24.505-42.133 24.505-27.085 0-50.158-22.463-50.158-51.051 0-16.336 13.041-37.778 24.076-52.072 8.025-10.21 17.054-20.42 27.085-28.589l41.129-32.673 44.139 32.673c19.060 14.294 34.107 33.694 43.136 56.156 3.009 8.168 5.016 17.357 5.016 24.505 0 28.589-22.069 51.051-50.158 51.051zM385.277 461.104v-148.048h48.151v148.048h-48.151z" />
<glyph unicode="&#xe903;" glyph-name="travel-business" data-tags="travel-business" d="M384 611.058v-22.378c0-18.797 15.825-33.119 33.513-34.014h188.044c19.549 0 34.444 15.217 34.444 33.119v22.378c0 18.797-14.383 29.837-34.444 29.837h-8.223v17.604c-2.017 13.427-13.188 25.063-28.082 25.063h-114.502c-13.964 0-26.065-10.741-28.082-25.063v-17.604h-8.223c-18.839 0-34.444-11.040-34.444-28.942zM85.333 502.115v-364.231c0-52.693 43.908-95.218 98.315-95.218h656.704c54.407 0 98.315 42.524 98.315 95.218v364.231c0 52.693-43.908 95.218-98.315 95.218h-157.685v-8.32c0-37.469-41.396-77.013-84.568-77.013h-170.935c-44.526 0-85.831 41.672-85.831 77.013v8.32h-157.685c-54.407 0-98.315-42.524-98.315-95.218zM554.667 384v42.667h298.667v-42.667h-298.667zM554.667 298.666v42.667h298.667v-42.667h-298.667zM554.667 213.333v42.667h298.667v-42.667h-298.667zM446.903 169.449c-1.095 0-2.116 1.195-3.277 3.213-14.369 25.298-32.015 44.413-49.662 58.749-20.625-14.715-45.713-24.337-73.173-24.337-27.419 0-52.565 8.581-73.157 23.272-17.688-14.336-35.292-32.143-49.745-57.505-1.153-2.018-2.19-3.39-3.269-3.39h-24.474v298.667h298.667v-298.667h-21.911zM320 256c47.128 0 85.333 38.205 85.333 85.333s-38.205 85.333-85.333 85.333c-47.128 0-85.333-38.205-85.333-85.333s38.205-85.333 85.333-85.333z" />
<glyph unicode="&#xe904;" glyph-name="travel-winter" data-tags="travel-winter" d="M395.385 253.912l113.21 115.691 114.062-115.691 113.21 115.691 66.394-67.849c-17.875 115.691-99.591 208.767-205.992 242.691 40.858 17.397 70.65 59.151 70.65 106.993 0 64.37-51.072 116.561-113.21 116.561-62.989 0-113.21-52.192-113.21-115.691 0-39.144 18.727-73.068 47.667-93.945-140.449-9.568-254.51-118.301-274.939-258.349l68.948 70.459 113.21-116.561zM814.178 169.536h-45.965l39.155 40.014v46.103l-69.799 71.329-93.633-94.815 61.287-62.63h-41.709l-40.858 41.753-40.858-41.753h-41.709l61.287 62.63-91.93 94.815-92.781-94.815 61.287-62.63h-41.709l-40.858 41.753-40.858-41.753h-41.709l61.287 62.63-91.93 94.815-72.352-73.938v-41.753l40.858-41.753h-40.858c-21.28 0-39.155-17.397-39.155-40.014v-174.842c0-21.747 17.024-40.014 39.155-40.014h604.356c21.28 0 39.155 17.397 39.155 40.014v175.712c-0.851 21.747-17.875 39.144-39.155 39.144zM231.953 232.165l50.221 51.322 50.221-51.322-50.221-51.322-50.221 51.322zM458.374 232.165l50.221 51.322 50.221-51.322-50.221-51.322-50.221 51.322zM685.646 232.165l50.221 51.322 50.221-51.322-50.221-51.322-50.221 51.322zM509.446 215.638c8.932 0 16.173 7.4 16.173 16.527s-7.241 16.527-16.173 16.527c-8.932 0-16.173-7.4-16.173-16.527s7.241-16.527 16.173-16.527zM282.175 215.638c8.932 0 16.173 7.4 16.173 16.527s-7.241 16.527-16.173 16.527c-8.932 0-16.173-7.4-16.173-16.527s7.241-16.527 16.173-16.527zM736.718 215.638c8.932 0 16.173 7.4 16.173 16.527s-7.241 16.527-16.173 16.527c-8.932 0-16.173-7.4-16.173-16.527s7.241-16.527 16.173-16.527z" />
<glyph unicode="&#xe905;" glyph-name="travel-wellness" data-tags="travel-wellness" d="M512.004 512.317c58.862 0 106.58 47.685 106.58 106.508s-47.717 106.508-106.58 106.508c-58.862 0-106.58-47.685-106.58-106.508s47.717-106.508 106.58-106.508zM762.368-42.018c33.876-4.596 66.251 15.608 76.926 48.084s-3.378 67.936-33.4 84.305l-175.463 95.636 8.518 136.265 37.541-80.414c2.632-5.604 6.214-10.725 10.592-15.091l118.156-118.077c10.387-10.38 23.98-15.567 37.59-15.567 13.618 0 27.211 5.194 37.598 15.567 20.767 20.744 20.767 54.393 0 75.137l-111.531 111.448-71.925 120.208c-19.545 39.359-47.944 64.061-90.445 64.061h-189.039c-42.501 0-70.892-24.702-90.437-64.061l-71.933-119.667-111.54-111.719c-20.767-20.744-20.767-54.524 0-75.277 10.387-10.38 23.989-15.64 37.598-15.64s27.211 5.162 37.598 15.534l118.156 118.060c4.378 4.367 7.961 9.479 10.584 15.083l37.549 80.414 8.526-136.273-175.463-95.628c-30.031-16.369-44.083-51.828-33.409-84.305s43.042-52.681 76.926-48.084l250.364 34.115 250.364-34.115z" />
<glyph unicode="&#xe906;" glyph-name="travel-culture" data-tags="travel-culture" d="M867.031 615.139c0 0-37.817-40.689-162.688-18.386-124.871 22.272-144.5 72.723-144.5 72.723-10.726 27.595-24.209 26.443-29.997-2.55 0 0-0.608-3.095-1.581-8.709 6.699-36.949 14.286-89.726 15.696-145.307 1.511-57.793-4.128-107.183-16.568-147.127 14.769-58.138 43.675-106.231 96.518-122.782l-48.972-266.683c-1.605-8.763 4.3-17.157 13.164-18.724 8.895-1.582 17.386 4.216 18.99 12.964l49.003 266.722c176.008-8.855 238.844 364.474 238.844 364.474 4.899 29.131-7.657 35.167-27.909 13.386v0zM576.379 526.918c0 0 13.008-6.398 40.419-1.836 27.434 4.562 37.622 14.8 37.622 14.8 2.96 2.995 5.647 2.020 5.904-2.166 0 0 2.111-32.863-38.643-39.629-40.73-6.774-50.062 24.93-50.062 24.93-1.192 4.009 0.943 5.768 4.759 3.901v0zM743.289 305.486c-0.312-4.186-2.843-5-5.616-1.836 0 0-24.856 28.363-78.922 38.001-54.050 9.654-87.428-8.318-87.428-8.318-3.708-2.005-5.826-0.353-4.697 3.679 0 0 22.168 78.275 102.469 63.921 80.324-14.331 74.193-95.448 74.193-95.448v0zM803.368 481.652c0 0-19.333-26.88-55.312-6.828-35.979 20.022-23.041 50.443-23.041 50.443 1.651 3.855 4.44 3.871 6.216 0.092 0 0 6.037-13.056 30.254-26.535 24.209-13.463 38.658-11.827 38.658-11.827 4.245 0.484 5.686-1.928 3.225-5.345zM490.985 703.437c-3.684 14.569-9.098 21.896-14.8 21.896-5.523 0-11.349-6.835-16.171-20.537 0 0-18.328-52.186-141.906-80.618-33.268-7.672-60.36-10.468-82.185-10.468-59.246 0-79.7 20.644-79.7 20.644-8.374 8.41-15.298 12.465-20.174 12.465-7.384 0-10.165-9.231-6.325-26.573 0 0 78.065-352.792 245.084-352.792 3.957 0 7.968 0.192 12.035 0.599l62.525-263.934c1.776-7.434 8.467-12.465 15.898-12.465 1.231 0 2.508 0.146 3.739 0.445 8.786 2.020 14.239 10.675 12.206 19.361l-62.525 263.942c64.862 23.885 89.889 95.079 96.424 172.725 2.687 31.98 2.228 65.012 0.109 96.324-5.85 86.178-24.233 158.985-24.233 158.985zM271.544 515.16c-25.565-10.837-32.964-23.202-32.964-23.202-2.173-3.594-4.954-3.256-6.161 0.745 0 0-9.573 31.611 28.361 47.739 37.918 16.128 54.253-12.603 54.253-12.603 2.064-3.671 0.351-5.891-3.77-4.977 0 0.008-14.192 3.164-39.718-7.703v0zM385.252 348.064c-79.467-18.279-106.535 58.568-106.535 58.568-1.402 3.955 0.608 5.691 4.424 3.863 0 0 34.226-16.274 87.708-3.963 53.513 12.311 76.881 41.887 76.881 41.887 2.602 3.287 5.188 2.604 5.78-1.544 0.016-0.008 11.24-80.518-68.258-98.812v0zM449.592 540.143c0 0-12.105 7.972-39.897 6.858-27.777-1.114-39.188-10.023-39.188-10.023-3.342-2.581-5.811-1.306-5.468 2.88 0 0 2.524 32.886 43.799 34.56 41.283 1.651 46.082-30.974 46.082-30.974 0.6-4.14-1.799-5.622-5.328-3.302v0z" />
<glyph unicode="&#xe907;" glyph-name="external-link" data-tags="external-link" d="M583.823 597.333h-258.136c-62.453 0-112.354-50.303-112.354-112.354v-372.626c0-62.453 50.303-112.354 112.354-112.354h372.626c62.453 0 112.354 50.303 112.354 112.354v143.646h-85.333v-134.774c0-19.995-15.859-35.893-35.893-35.893h-354.882c-19.995 0-35.893 15.859-35.893 35.893v354.882c0 19.995 15.859 35.893 35.893 35.893h134.774v85.333h114.49zM810.667 544.942l-263.507-263.507c-16.733-16.733-43.688-16.906-60.467-0.127-16.662 16.662-16.396 43.944 0.127 60.467l255.559 255.559h-145.172c-23.494 0-42.54 18.938-42.54 42.667 0 23.564 19.33 42.667 42.54 42.667h256.253c11.726 0 22.344-4.718 30.039-12.394 7.742-7.944 12.501-18.561 12.501-30.146v-256.253c0-23.494-18.938-42.54-42.667-42.54-23.564 0-42.667 19.33-42.667 42.54v161.069z" />
<glyph unicode="&#xe908;" glyph-name="back-to-top" data-tags="back-to-top" d="M569.021-28.135c0-31.477-25.801-56.995-58.128-56.995-32.103 0-58.128 25.177-58.128 56.995v388.251l-118.714-115.735c-22.798-22.225-59.523-22.457-82.381-0.172-22.7 22.13-22.701 58.010 0.176 80.313l218.86 213.366c11.428 11.141 26.356 16.756 41.283 16.778 14.839-0.022 29.806-5.597 41.275-16.778l218.86-213.366c22.798-22.225 23.035-58.029 0.176-80.313-22.7-22.13-59.504-22.131-82.381 0.172l-120.898 117.863v-390.38zM170.667 704c0 35.346 28.464 64 64.224 64h554.219c35.47 0 64.224-28.407 64.224-64 0-35.346-28.464-64-64.224-64h-554.219c-35.47 0-64.224 28.407-64.224 64z" />
<glyph unicode="&#xe909;" glyph-name="best-offer" data-tags="best-offer" d="M672 605.866c0-4.504-0.278-8.726-0.833-12.667s-0.833-8.163-0.833-12.667c-25.556 9.007-51.389 15.763-77.5 20.267s-53.055 6.756-80.833 6.756c-27.778 0-54.722-2.252-80.833-6.756s-51.944-11.259-77.5-20.267c0 4.504-0.278 8.726-0.833 12.667s-0.833 8.163-0.833 12.667c0 45.037 15.555 83.318 46.667 114.844s68.889 47.289 113.333 47.289c44.445 0 82.222-15.763 113.333-47.289s46.667-69.807 46.667-114.844v0zM85.333 308.622c0 9.007 3.056 15.763 9.167 20.267s13.056 6.756 20.833 6.756h68.333c14.445 60.8 51.389 112.029 110.833 153.689s129.166 62.489 209.167 62.489c31.111 0 61.111-3.659 90-10.978s56.111-17.17 81.667-29.556l116.667 65.867-30-130.044c8.889-10.133 16.667-19.141 23.333-27.022s12.778-18.015 18.333-30.4h101.667c8.889 0 16.667-3.378 23.333-10.133s10-14.637 10-23.644l-33.333-148.622c-2.222-13.511-6.111-22.518-11.667-27.022s-12.778-6.756-21.667-6.756h-91.667c0 0-3.611-9.007-10.833-27.022s-21.944-32.652-44.167-43.911v-145.244h-121.667l-15 79.378c-14.445-2.252-28.611-4.222-42.5-5.911s-28.055-2.533-42.5-2.533c-11.111 0-21.944 0.281-32.5 0.844s-20.833 1.97-30.833 4.222l-16.667-76h-125v128.356c-37.778 23.645-65.555 53.2-83.333 88.667s-28.333 71.215-31.667 107.244h-68.333c-7.778 0-14.722 2.252-20.833 6.756s-9.167 11.259-9.167 20.267v0z" />
<glyph unicode="&#xe90a;" glyph-name="smiley-very-sad" data-tags="smiley-very-sad" d="M512-85.334c235.641 0 426.667 191.025 426.667 426.667s-191.025 426.667-426.667 426.667c-235.641 0-426.667-191.025-426.667-426.667s191.025-426.667 426.667-426.667v0zM512-40.421c-210.837 0-381.754 170.917-381.754 381.754s170.917 381.754 381.754 381.754c210.837 0 381.754-170.917 381.754-381.754s-170.917-381.754-381.754-381.754v0zM599.15 370.468c-5.455-7.444-8.664-16.639-8.664-26.59 0-24.977 20.108-44.912 44.912-44.912 24.977 0 44.912 20.108 44.912 44.912 0 15.674-7.918 29.362-19.946 37.384l118.839 20.955c10.474 1.847 17.974 12.357 16.036 23.35-1.882 10.671-12.26 18.36-23.055 16.457l-199.751-35.221c-10.474-1.847-17.974-12.357-16.036-23.35 1.882-10.671 12.26-18.36 23.055-16.457l19.696 3.473zM381.372 381.263c-12.059-8.052-19.939-21.79-19.939-37.385 0-24.977 20.108-44.912 44.912-44.912 24.977 0 44.912 20.108 44.912 44.912 0 9.986-3.214 19.167-8.658 26.589l19.691-3.472c10.474-1.847 21.117 5.465 23.055 16.457 1.882 10.671-5.241 21.446-16.036 23.35l-199.751 35.221c-10.474 1.847-21.117-5.465-23.055-16.457-1.882-10.671 5.241-21.446 16.036-23.35l118.833-20.953zM624.374 198.138c-21.312 21.134-57.746 33.458-97.158 33.458-38.541 0-74.267-11.804-95.762-32.117-9.014-8.518-9.416-22.731-0.898-31.745s22.731-9.416 31.745-0.898c12.372 11.691 37.059 19.848 64.915 19.848 28.412 0 53.473-8.477 65.533-20.436 8.806-8.733 23.025-8.673 31.757 0.133s8.673 23.025-0.133 31.757z" />
<glyph unicode="&#xe90b;" glyph-name="smiley-sad" data-tags="smiley-sad" d="M512-85.334c235.641 0 426.667 191.025 426.667 426.667s-191.025 426.667-426.667 426.667c-235.641 0-426.667-191.025-426.667-426.667s191.025-426.667 426.667-426.667v0zM512-40.421c-210.837 0-381.754 170.917-381.754 381.754s170.917 381.754 381.754 381.754c210.837 0 381.754-170.917 381.754-381.754s-170.917-381.754-381.754-381.754v0zM618.667 454.382c0 24.804 19.935 44.912 44.912 44.912 24.804 0 44.912-19.935 44.912-44.912 0-24.804-19.935-44.912-44.912-44.912-24.804 0-44.912 19.935-44.912 44.912zM654.811 213.023c-31.393 32.468-86.569 51.933-146.643 51.933-58.772 0-112.91-18.656-144.647-49.933-8.833-8.706-8.937-22.924-0.231-31.757s22.924-8.937 31.757-0.231c22.595 22.268 65.374 37.009 113.121 37.009 48.733 0 92.212-15.339 114.355-38.239 8.621-8.916 22.837-9.155 31.753-0.534s9.155 22.837 0.534 31.753zM308.622 454.382c0 24.804 19.935 44.912 44.912 44.912 24.804 0 44.912-19.935 44.912-44.912 0-24.804-19.935-44.912-44.912-44.912-24.804 0-44.912 19.935-44.912 44.912z" />
</font>
</defs>
</svg>
